<svg id="svg" version="1.1" xmlns="http://www.w3.org/2000/svg" xmlns:xlink="http://www.w3.org/1999/xlink" width="400" height="400" viewBox="0, 0, 400,400"><g id="svgg"><path id="path0" d="M226.226 116.042 C 226.348 116.240,225.194 116.400,223.647 116.400 C 222.107 116.400,220.736 116.580,220.600 116.800 C 220.464 117.020,219.903 117.200,219.353 117.200 C 218.788 117.200,218.460 117.374,218.600 117.600 C 218.744 117.833,218.337 118.000,217.624 118.000 C 216.951 118.000,216.400 118.180,216.400 118.400 C 216.400 118.620,215.961 118.800,215.424 118.800 C 214.887 118.800,214.336 118.980,214.200 119.200 C 214.064 119.420,213.603 119.600,213.176 119.600 C 212.749 119.600,212.400 119.780,212.400 120.000 C 212.400 120.220,212.040 120.400,211.600 120.400 C 211.160 120.400,210.800 120.580,210.800 120.800 C 210.800 121.020,210.440 121.200,210.000 121.200 C 209.560 121.200,209.200 121.380,209.200 121.600 C 209.200 121.820,208.880 122.000,208.488 122.000 C 208.097 122.000,207.517 122.360,207.200 122.800 C 206.883 123.240,206.415 123.600,206.160 123.600 C 205.905 123.600,204.955 124.320,204.048 125.200 C 203.141 126.080,202.247 126.800,202.062 126.800 C 201.564 126.800,200.533 128.073,200.234 129.056 C 199.872 130.249,205.094 135.600,206.621 135.600 C 207.203 135.600,207.540 135.427,207.400 135.200 C 207.264 134.980,207.355 134.800,207.602 134.800 C 207.850 134.800,208.929 133.900,210.000 132.800 C 211.071 131.700,212.230 130.800,212.574 130.800 C 212.918 130.800,213.200 130.620,213.200 130.400 C 213.200 130.180,213.560 130.000,214.000 130.000 C 214.440 130.000,214.800 129.820,214.800 129.600 C 214.800 129.380,215.160 129.200,215.600 129.200 C 216.040 129.200,216.400 129.020,216.400 128.800 C 216.400 128.580,216.760 128.400,217.200 128.400 C 217.640 128.400,218.000 128.220,218.000 128.000 C 218.000 127.780,218.360 127.600,218.800 127.600 C 219.240 127.600,219.600 127.420,219.600 127.200 C 219.600 126.980,220.039 126.800,220.576 126.800 C 221.113 126.800,221.664 126.620,221.800 126.400 C 221.936 126.180,222.667 126.000,223.424 126.000 C 224.181 126.000,224.800 125.820,224.800 125.600 C 224.800 125.349,227.275 125.200,231.424 125.200 C 235.737 125.200,237.961 125.339,237.800 125.600 C 237.653 125.838,238.129 126.000,238.976 126.000 C 239.759 126.000,240.400 126.141,240.400 126.313 C 240.400 126.485,240.895 126.666,241.500 126.716 C 242.105 126.766,242.660 126.985,242.733 127.203 C 242.807 127.422,243.257 127.604,243.733 127.609 C 244.210 127.614,245.050 127.970,245.600 128.400 C 246.150 128.830,246.965 129.186,247.412 129.191 C 247.858 129.196,248.483 129.560,248.800 130.000 C 249.117 130.440,249.657 130.800,250.000 130.800 C 250.343 130.800,250.883 131.160,251.200 131.600 C 251.517 132.040,252.015 132.400,252.306 132.400 C 252.908 132.400,254.800 134.171,254.800 134.734 C 254.800 134.937,255.520 135.845,256.400 136.752 C 257.280 137.659,258.000 138.598,258.000 138.840 C 258.000 139.081,258.540 139.783,259.200 140.400 C 259.860 141.017,260.400 141.809,260.400 142.160 C 260.400 142.512,260.580 142.800,260.800 142.800 C 261.020 142.800,261.200 143.250,261.200 143.800 C 261.200 144.350,261.380 144.800,261.600 144.800 C 261.820 144.800,262.000 145.124,262.000 145.520 C 262.000 145.916,262.225 146.482,262.500 146.779 C 262.907 147.217,262.888 147.255,262.400 146.982 C 261.902 146.703,261.885 146.751,262.300 147.264 C 262.574 147.603,262.837 148.345,262.884 148.912 C 262.931 149.479,263.112 149.855,263.285 149.748 C 263.458 149.640,263.600 150.564,263.600 151.800 C 263.600 153.196,263.751 153.954,264.000 153.800 C 264.257 153.641,264.400 155.129,264.400 157.976 C 264.400 160.659,264.243 162.400,264.000 162.400 C 263.780 162.400,263.600 163.311,263.600 164.424 C 263.600 165.671,263.447 166.352,263.200 166.200 C 262.967 166.056,262.800 166.463,262.800 167.176 C 262.800 167.849,262.658 168.400,262.485 168.400 C 262.312 168.400,262.142 168.771,262.108 169.224 C 262.028 170.288,261.093 172.400,260.702 172.400 C 260.536 172.400,260.400 172.760,260.400 173.200 C 260.400 173.640,260.220 174.000,260.000 174.000 C 259.780 174.000,259.600 174.288,259.600 174.640 C 259.600 174.991,259.060 175.783,258.400 176.400 C 257.740 177.017,257.200 177.721,257.200 177.966 C 257.200 178.591,250.525 185.200,249.894 185.200 C 249.609 185.200,249.117 185.560,248.800 186.000 C 248.483 186.440,247.903 186.800,247.512 186.800 C 247.120 186.800,246.800 186.980,246.800 187.200 C 246.800 187.420,246.440 187.600,246.000 187.600 C 245.560 187.600,245.200 187.780,245.200 188.000 C 245.200 188.220,244.761 188.400,244.224 188.400 C 243.687 188.400,243.136 188.580,243.000 188.800 C 242.864 189.020,242.403 189.200,241.976 189.200 C 241.549 189.200,241.200 189.380,241.200 189.600 C 241.200 189.820,240.671 190.000,240.024 190.000 C 239.377 190.000,238.736 190.180,238.600 190.400 C 238.464 190.620,237.373 190.800,236.176 190.800 C 234.949 190.800,234.000 190.980,234.000 191.212 C 234.000 191.472,232.516 191.604,230.000 191.568 C 227.800 191.538,226.000 191.352,226.000 191.156 C 226.000 190.960,224.920 190.800,223.600 190.800 C 222.267 190.800,221.200 190.622,221.200 190.400 C 221.200 190.180,220.660 190.000,220.000 190.000 C 219.340 190.000,218.800 189.820,218.800 189.600 C 218.800 189.380,218.440 189.200,218.000 189.200 C 217.560 189.200,217.200 189.020,217.200 188.800 C 217.200 188.580,216.922 188.400,216.583 188.400 C 216.244 188.400,215.580 188.040,215.108 187.600 C 214.636 187.160,213.873 186.800,213.413 186.800 C 212.953 186.800,212.317 186.440,212.000 186.000 C 211.683 185.560,211.188 185.200,210.901 185.200 C 210.614 185.200,209.569 184.390,208.579 183.400 C 207.589 182.410,206.545 181.600,206.259 181.600 C 205.629 181.600,199.600 175.479,199.600 174.839 C 199.600 174.589,195.996 170.788,191.591 166.391 L 183.582 158.397 185.381 156.598 C 186.370 155.609,187.377 154.800,187.618 154.800 C 188.204 154.800,189.200 153.778,189.200 153.175 C 189.200 152.523,190.815 151.162,191.262 151.438 C 191.459 151.560,191.570 151.421,191.510 151.130 C 191.449 150.838,191.625 150.645,191.900 150.700 C 192.175 150.755,192.355 150.575,192.300 150.300 C 192.245 150.025,192.470 149.860,192.800 149.933 C 193.130 150.007,193.285 149.952,193.144 149.811 C 192.908 149.574,197.791 144.400,198.251 144.400 C 200.501 144.400,199.841 141.618,196.900 138.704 C 194.334 136.163,192.400 135.275,192.400 136.638 C 192.400 136.896,192.040 137.201,191.600 137.316 C 191.160 137.431,190.800 137.791,190.800 138.116 C 190.800 138.441,190.440 138.801,190.000 138.916 C 189.560 139.031,189.200 139.369,189.200 139.668 C 189.200 139.966,188.810 140.388,188.333 140.605 C 187.856 140.822,187.271 141.346,187.033 141.770 C 186.403 142.890,181.880 147.407,181.081 147.713 C 180.707 147.857,180.400 148.169,180.400 148.406 C 180.400 148.962,178.802 150.560,177.899 150.907 C 177.515 151.054,177.200 151.369,177.200 151.606 C 177.200 152.162,175.602 153.760,174.699 154.107 C 174.315 154.254,174.000 154.611,174.000 154.899 C 174.000 155.187,173.640 155.683,173.200 156.000 C 172.574 156.451,172.400 157.035,172.400 158.690 L 172.400 160.804 182.598 171.002 C 188.207 176.611,192.998 181.200,193.244 181.200 C 193.888 181.200,200.000 187.236,200.000 187.871 C 200.000 188.523,203.897 192.400,204.552 192.400 C 204.811 192.400,205.283 192.760,205.600 193.200 C 205.917 193.640,206.457 194.000,206.800 194.000 C 207.143 194.000,207.683 194.360,208.000 194.800 C 208.317 195.240,208.814 195.600,209.105 195.600 C 209.396 195.600,210.020 195.960,210.492 196.400 C 210.964 196.840,211.767 197.200,212.275 197.200 C 212.784 197.200,213.200 197.380,213.200 197.600 C 213.200 197.820,213.560 198.000,214.000 198.000 C 214.440 198.000,214.800 198.180,214.800 198.400 C 214.800 198.620,215.340 198.800,216.000 198.800 C 216.660 198.800,217.200 198.980,217.200 199.200 C 217.200 199.420,217.560 199.600,218.000 199.600 C 218.440 199.600,218.800 199.780,218.800 200.000 C 218.800 200.220,218.991 200.400,219.224 200.400 C 219.457 200.400,219.520 200.175,219.365 199.900 C 219.139 199.500,219.190 199.500,219.621 199.900 C 219.918 200.175,220.754 200.400,221.480 200.400 C 222.206 200.400,222.800 200.580,222.800 200.800 C 222.800 201.055,226.075 201.200,231.824 201.200 C 237.737 201.200,240.762 201.062,240.600 200.800 C 240.456 200.566,240.865 200.400,241.583 200.400 C 243.046 200.400,246.000 199.532,246.000 199.103 C 246.000 198.936,246.360 198.800,246.800 198.800 C 247.240 198.800,247.600 198.620,247.600 198.400 C 247.600 198.180,248.140 198.000,248.800 198.000 C 249.460 198.000,250.000 197.820,250.000 197.600 C 250.000 197.380,250.360 197.200,250.800 197.200 C 251.240 197.200,251.600 197.020,251.600 196.800 C 251.600 196.580,251.920 196.400,252.312 196.400 C 252.703 196.400,253.283 196.040,253.600 195.600 C 253.917 195.160,254.457 194.800,254.800 194.800 C 255.143 194.800,255.683 194.440,256.000 194.000 C 256.317 193.560,256.825 193.200,257.128 193.200 C 257.431 193.200,258.156 192.694,258.740 192.075 C 259.323 191.457,260.115 190.833,260.500 190.688 C 260.885 190.543,261.200 190.149,261.200 189.813 C 261.200 189.476,261.476 189.200,261.813 189.200 C 262.149 189.200,262.544 188.885,262.690 188.500 C 263.027 187.611,263.611 187.027,264.500 186.690 C 264.885 186.544,265.200 186.149,265.200 185.813 C 265.200 185.476,265.380 185.200,265.600 185.200 C 265.820 185.200,266.000 184.928,266.000 184.596 C 266.000 184.264,266.540 183.428,267.200 182.737 C 267.860 182.046,268.400 181.238,268.400 180.941 C 268.400 180.643,268.580 180.400,268.800 180.400 C 269.020 180.400,269.200 180.122,269.200 179.783 C 269.200 179.444,269.560 178.780,270.000 178.308 C 270.440 177.836,270.800 176.932,270.800 176.301 C 270.800 175.637,270.969 175.257,271.200 175.400 C 271.438 175.547,271.600 175.071,271.600 174.224 C 271.600 173.441,271.780 172.800,272.000 172.800 C 272.220 172.800,272.400 172.249,272.400 171.576 C 272.400 170.863,272.567 170.456,272.800 170.600 C 273.044 170.751,273.200 170.145,273.200 169.047 C 273.200 168.057,273.380 167.136,273.600 167.000 C 273.847 166.847,274.000 163.396,274.000 157.976 C 274.000 152.392,273.855 149.200,273.600 149.200 C 273.380 149.200,273.200 148.761,273.200 148.224 C 273.200 147.687,273.020 147.136,272.800 147.000 C 272.580 146.864,272.400 146.043,272.400 145.176 C 272.400 144.309,272.220 143.600,272.000 143.600 C 271.780 143.600,271.600 143.240,271.600 142.800 C 271.600 142.360,271.420 142.000,271.200 142.000 C 270.980 142.000,270.800 141.640,270.800 141.200 C 270.800 140.760,270.620 140.400,270.400 140.400 C 270.180 140.400,270.000 140.040,270.000 139.600 C 270.000 139.160,269.820 138.800,269.600 138.800 C 269.380 138.800,269.200 138.440,269.200 138.000 C 269.200 137.560,269.020 137.200,268.800 137.200 C 268.580 137.200,268.400 136.880,268.400 136.488 C 268.400 136.097,268.040 135.517,267.600 135.200 C 267.160 134.883,266.800 134.343,266.800 134.000 C 266.800 133.657,266.440 133.117,266.000 132.800 C 265.560 132.483,265.200 132.001,265.200 131.729 C 265.200 131.200,261.003 126.800,260.498 126.800 C 260.332 126.800,259.431 126.080,258.497 125.200 C 257.563 124.320,256.568 123.600,256.287 123.600 C 256.007 123.600,255.517 123.240,255.200 122.800 C 254.883 122.360,254.343 122.000,254.000 122.000 C 253.657 122.000,253.117 121.640,252.800 121.200 C 252.483 120.760,251.903 120.400,251.512 120.400 C 251.120 120.400,250.800 120.220,250.800 120.000 C 250.800 119.780,250.260 119.600,249.600 119.600 C 248.940 119.600,248.400 119.420,248.400 119.200 C 248.400 118.980,247.939 118.800,247.376 118.800 C 246.796 118.800,246.460 118.627,246.600 118.400 C 246.744 118.168,246.349 118.000,245.657 118.000 C 245.002 118.000,244.407 117.828,244.333 117.618 C 244.260 117.407,243.525 117.190,242.700 117.136 C 241.875 117.081,241.200 116.893,241.200 116.718 C 241.200 116.543,240.041 116.400,238.624 116.400 C 237.207 116.400,235.932 116.213,235.791 115.985 C 235.633 115.730,233.693 115.592,230.769 115.627 C 228.082 115.659,226.101 115.840,226.226 116.042 " stroke="none" fill="#e4878f" fill-rule="evenodd"></path><path id="path1" d="M160.800 117.100 C 160.800 117.415,160.218 117.600,159.224 117.600 C 158.357 117.600,157.536 117.780,157.400 118.000 C 157.264 118.220,156.724 118.400,156.200 118.400 C 155.676 118.400,155.136 118.580,155.000 118.800 C 154.864 119.020,154.313 119.200,153.776 119.200 C 153.239 119.200,152.800 119.380,152.800 119.600 C 152.800 119.820,152.350 120.000,151.800 120.000 C 151.250 120.000,150.800 120.180,150.800 120.400 C 150.800 120.620,150.350 120.800,149.800 120.800 C 149.250 120.800,148.800 120.980,148.800 121.200 C 148.800 121.420,148.564 121.600,148.275 121.600 C 147.987 121.600,147.364 121.960,146.892 122.400 C 146.420 122.840,145.796 123.200,145.505 123.200 C 145.214 123.200,144.717 123.560,144.400 124.000 C 144.083 124.440,143.593 124.800,143.312 124.800 C 143.030 124.800,142.800 124.980,142.800 125.200 C 142.800 125.420,142.608 125.600,142.372 125.600 C 141.841 125.600,134.400 133.171,134.400 133.712 C 134.400 133.929,134.085 134.398,133.700 134.754 C 132.863 135.529,131.965 137.032,130.567 140.000 C 129.997 141.210,129.366 142.513,129.165 142.895 C 128.964 143.277,128.800 143.952,128.800 144.395 C 128.800 144.838,128.620 145.200,128.400 145.200 C 128.180 145.200,128.000 145.746,128.000 146.413 C 128.000 147.093,127.750 147.721,127.430 147.844 C 127.019 148.001,126.925 148.461,127.092 149.491 C 127.251 150.471,127.147 151.058,126.762 151.360 C 125.990 151.964,125.932 165.088,126.700 165.383 C 126.997 165.497,127.200 166.302,127.200 167.364 C 127.200 168.348,127.380 169.264,127.600 169.400 C 127.820 169.536,128.000 170.177,128.000 170.824 C 128.000 171.471,128.180 172.000,128.400 172.000 C 128.620 172.000,128.800 172.540,128.800 173.200 C 128.800 173.860,128.980 174.400,129.200 174.400 C 129.420 174.400,129.600 174.760,129.600 175.200 C 129.600 175.640,129.780 176.000,130.000 176.000 C 130.220 176.000,130.400 176.234,130.400 176.520 C 130.400 177.256,131.341 179.193,131.700 179.197 C 131.865 179.199,132.000 179.560,132.000 180.000 C 132.000 180.440,132.180 180.800,132.400 180.800 C 132.620 180.800,132.800 180.978,132.800 181.195 C 132.800 181.558,133.541 182.590,134.636 183.752 C 134.875 184.006,135.145 184.434,135.236 184.704 C 135.449 185.338,140.837 190.800,141.249 190.800 C 141.422 190.800,142.014 191.250,142.564 191.800 C 143.114 192.350,143.752 192.800,143.982 192.800 C 144.212 192.800,144.400 192.980,144.400 193.200 C 144.400 193.420,144.670 193.600,145.000 193.600 C 145.330 193.600,145.601 193.735,145.603 193.900 C 145.605 194.065,146.010 194.401,146.503 194.646 C 148.246 195.512,152.609 197.696,153.295 198.046 C 153.677 198.241,154.341 198.400,154.771 198.400 C 155.201 198.400,155.664 198.580,155.800 198.800 C 155.936 199.020,156.566 199.200,157.200 199.200 C 157.834 199.200,158.464 199.380,158.600 199.600 C 158.736 199.820,159.827 200.000,161.024 200.000 C 162.639 200.000,163.200 200.147,163.200 200.569 C 163.200 201.376,174.661 201.339,174.971 200.531 C 175.098 200.199,175.846 200.000,176.964 200.000 C 177.948 200.000,178.864 199.820,179.000 199.600 C 179.136 199.380,179.777 199.200,180.424 199.200 C 181.071 199.200,181.600 199.020,181.600 198.800 C 181.600 198.580,182.140 198.400,182.800 198.400 C 183.460 198.400,184.000 198.220,184.000 198.000 C 184.000 197.780,184.360 197.600,184.800 197.600 C 185.240 197.600,185.600 197.420,185.600 197.200 C 185.600 196.980,185.872 196.800,186.205 196.800 C 186.792 196.800,188.394 196.040,188.800 195.568 C 188.910 195.440,189.585 195.081,190.300 194.770 C 191.015 194.459,191.600 194.069,191.600 193.902 C 191.600 193.736,191.870 193.600,192.200 193.600 C 192.530 193.600,192.800 193.459,192.800 193.286 C 192.800 193.114,193.295 192.678,193.900 192.317 C 195.272 191.499,199.200 187.727,199.200 187.227 C 199.200 186.781,194.455 182.200,193.993 182.200 C 193.814 182.200,192.661 183.145,191.431 184.300 C 190.202 185.455,189.050 186.400,188.873 186.400 C 188.696 186.400,188.193 186.715,187.755 187.100 C 186.040 188.609,182.368 190.485,181.549 190.271 C 181.140 190.164,180.865 190.281,180.914 190.541 C 180.964 190.810,180.463 190.998,179.700 190.996 C 178.867 190.994,178.400 191.188,178.400 191.538 C 178.400 191.934,177.960 192.042,176.800 191.931 C 175.628 191.820,175.200 191.927,175.200 192.335 C 175.200 192.773,174.590 192.855,172.300 192.721 C 170.007 192.587,169.295 192.682,168.900 193.176 C 168.447 193.741,168.353 193.741,167.900 193.176 C 167.505 192.682,166.793 192.587,164.500 192.721 C 162.210 192.855,161.600 192.773,161.600 192.335 C 161.600 191.927,161.172 191.820,160.000 191.931 C 159.007 192.026,158.400 191.916,158.400 191.642 C 158.400 191.399,157.860 191.200,157.200 191.200 C 156.454 191.200,156.000 190.994,156.000 190.655 C 156.000 190.290,155.671 190.174,155.000 190.302 C 154.416 190.414,154.000 190.307,154.000 190.047 C 154.000 189.801,153.685 189.596,153.300 189.591 C 152.915 189.586,152.150 189.230,151.600 188.800 C 151.050 188.370,150.375 188.014,150.100 188.009 C 149.825 188.004,149.600 187.859,149.600 187.686 C 149.600 187.514,149.015 187.028,148.300 186.607 C 145.635 185.038,139.200 177.840,139.200 176.428 C 139.200 176.193,139.020 176.000,138.800 176.000 C 138.580 176.000,138.400 175.640,138.400 175.200 C 138.400 174.760,138.220 174.400,138.000 174.400 C 137.780 174.400,137.600 174.051,137.600 173.624 C 137.600 173.197,137.420 172.736,137.200 172.600 C 136.980 172.464,136.800 171.913,136.800 171.376 C 136.800 170.839,136.620 170.400,136.400 170.400 C 136.180 170.400,136.000 169.781,136.000 169.024 C 136.000 168.267,135.797 167.522,135.549 167.368 C 135.249 167.183,135.180 166.297,135.345 164.724 C 135.499 163.249,135.447 162.447,135.208 162.595 C 134.641 162.946,134.339 161.287,134.478 158.583 C 134.556 157.056,134.765 156.231,135.061 156.287 C 135.386 156.348,135.458 155.672,135.305 153.987 C 135.156 152.342,135.230 151.600,135.544 151.600 C 135.798 151.600,136.000 150.980,136.000 150.200 C 136.000 149.430,136.180 148.800,136.400 148.800 C 136.620 148.800,136.800 148.361,136.800 147.824 C 136.800 147.287,136.980 146.736,137.200 146.600 C 137.420 146.464,137.600 146.003,137.600 145.576 C 137.600 145.149,137.780 144.800,138.000 144.800 C 138.220 144.800,138.400 144.440,138.400 144.000 C 138.400 143.560,138.580 143.200,138.800 143.200 C 139.020 143.200,139.200 143.007,139.200 142.772 C 139.200 141.258,149.182 130.400,150.574 130.400 C 150.918 130.400,151.200 130.220,151.200 130.000 C 151.200 129.780,151.560 129.600,152.000 129.600 C 152.440 129.600,152.800 129.420,152.800 129.200 C 152.800 128.980,153.160 128.800,153.600 128.800 C 154.040 128.800,154.400 128.620,154.400 128.400 C 154.400 128.180,154.749 128.000,155.176 128.000 C 155.603 128.000,156.075 127.803,156.223 127.562 C 156.372 127.322,156.914 127.205,157.427 127.303 C 157.972 127.407,158.327 127.298,158.280 127.041 C 158.235 126.793,158.770 126.602,159.500 126.604 C 160.349 126.606,160.800 126.414,160.800 126.048 C 160.800 125.609,161.270 125.537,162.970 125.712 C 164.629 125.883,165.190 125.802,165.357 125.368 C 165.669 124.554,172.728 124.547,173.040 125.360 C 173.204 125.787,173.814 125.868,175.627 125.704 C 177.261 125.556,178.000 125.631,178.000 125.944 C 178.000 126.195,178.540 126.400,179.200 126.400 C 179.860 126.400,180.400 126.580,180.400 126.800 C 180.400 127.020,180.850 127.200,181.400 127.200 C 181.950 127.200,182.400 127.380,182.400 127.600 C 182.400 127.820,182.850 128.000,183.400 128.000 C 183.950 128.000,184.400 128.146,184.400 128.325 C 184.400 128.504,185.030 128.898,185.800 129.200 C 186.570 129.502,187.200 129.896,187.200 130.075 C 187.200 130.254,187.427 130.400,187.704 130.400 C 188.332 130.400,191.203 132.855,191.212 133.400 C 191.215 133.620,191.746 134.070,192.391 134.400 C 194.465 135.461,216.853 157.639,216.719 158.500 C 216.654 158.921,212.911 162.936,208.402 167.423 L 200.203 175.580 202.790 178.190 C 204.213 179.626,205.518 180.800,205.690 180.800 C 205.863 180.800,210.593 176.211,216.202 170.602 C 229.473 157.330,229.405 160.015,216.797 147.400 C 211.520 142.120,207.202 137.575,207.202 137.300 C 207.201 137.025,207.065 136.800,206.900 136.800 C 206.505 136.800,204.133 134.539,200.273 130.485 C 198.554 128.678,196.977 127.200,196.770 127.200 C 196.562 127.200,195.828 126.660,195.137 126.000 C 194.446 125.340,193.704 124.800,193.488 124.800 C 193.271 124.800,192.802 124.485,192.446 124.100 C 191.709 123.304,189.742 122.059,188.700 121.729 C 188.315 121.607,188.000 121.348,188.000 121.153 C 188.000 120.959,187.728 120.800,187.395 120.800 C 187.062 120.800,186.432 120.620,185.995 120.400 C 185.558 120.180,184.842 119.820,184.405 119.600 C 183.968 119.380,183.248 119.200,182.805 119.200 C 182.362 119.200,182.000 119.020,182.000 118.800 C 182.000 118.580,181.454 118.400,180.787 118.400 C 180.121 118.400,179.487 118.171,179.379 117.890 C 179.251 117.557,178.632 117.433,177.592 117.532 C 176.445 117.642,176.000 117.533,176.000 117.142 C 176.000 116.705,174.527 116.600,168.400 116.600 C 162.586 116.600,160.800 116.718,160.800 117.100 " stroke="none" fill="#7494e3" fill-rule="evenodd"></path><path id="path2" d="M169.200 235.200 L 169.200 251.600 172.200 251.600 L 175.200 251.600 175.200 242.067 C 175.200 236.823,175.316 232.417,175.458 232.276 C 175.802 231.931,177.509 233.436,184.400 240.161 C 194.448 249.967,198.950 253.452,197.843 250.567 C 197.709 250.219,197.600 243.199,197.600 234.967 L 197.600 220.000 194.800 220.000 L 192.000 220.000 192.000 229.400 C 192.000 234.570,191.894 238.800,191.765 238.800 C 191.479 238.800,182.039 229.951,175.443 223.500 C 168.603 216.811,169.200 215.693,169.200 235.200 M219.055 219.400 C 218.929 219.730,218.487 220.000,218.074 220.000 C 216.798 220.000,214.998 221.117,213.364 222.924 C 211.715 224.747,211.687 224.890,211.930 230.080 C 212.008 231.727,214.849 235.200,216.119 235.200 C 216.494 235.200,216.800 235.453,216.800 235.763 C 216.800 236.127,217.080 236.252,217.595 236.117 C 218.077 235.991,218.479 236.140,218.615 236.495 C 218.759 236.870,219.193 237.014,219.820 236.894 C 220.537 236.757,220.800 236.882,220.800 237.361 C 220.800 237.852,221.040 237.955,221.761 237.774 C 222.448 237.602,222.839 237.741,223.131 238.263 C 223.356 238.665,223.674 238.859,223.838 238.696 C 224.001 238.532,224.420 238.656,224.768 238.971 C 225.115 239.285,225.580 239.521,225.800 239.495 C 226.676 239.390,228.096 242.141,227.421 242.634 C 227.079 242.884,226.800 243.463,226.800 243.920 C 226.800 244.857,226.410 245.177,224.400 245.891 C 222.496 246.567,220.982 246.525,220.232 245.774 C 219.888 245.430,219.432 245.257,219.219 245.388 C 219.006 245.520,217.768 244.901,216.467 244.014 C 215.167 243.126,213.839 242.400,213.516 242.400 C 212.680 242.400,210.400 245.024,210.400 245.985 C 210.400 246.801,213.704 249.570,214.700 249.590 C 214.975 249.596,215.200 249.873,215.200 250.208 C 215.200 250.655,215.462 250.749,216.196 250.565 C 216.853 250.400,217.263 250.500,217.400 250.858 C 217.703 251.646,226.416 251.635,227.035 250.845 C 227.274 250.540,227.723 250.374,228.032 250.477 C 228.962 250.787,233.088 246.395,232.882 245.315 C 232.771 244.734,232.940 244.321,233.354 244.162 C 234.226 243.828,234.264 240.587,233.400 240.255 C 233.070 240.129,232.800 239.747,232.800 239.407 C 232.800 237.792,231.520 236.467,228.500 234.957 C 227.345 234.379,226.400 233.744,226.400 233.545 C 226.400 233.347,225.952 233.297,225.404 233.435 C 224.689 233.614,224.336 233.500,224.156 233.031 C 223.999 232.620,223.638 232.461,223.186 232.604 C 222.791 232.730,222.352 232.645,222.210 232.416 C 222.069 232.187,221.701 232.000,221.394 232.000 C 220.477 232.000,217.924 230.075,217.334 228.938 C 216.758 227.827,216.801 227.727,218.759 225.625 C 219.555 224.770,224.269 224.771,225.600 225.627 C 226.150 225.980,226.915 226.383,227.300 226.522 C 227.685 226.661,228.000 226.961,228.000 227.187 C 228.000 227.414,228.180 227.600,228.400 227.600 C 228.620 227.600,228.800 227.422,228.800 227.203 C 228.800 226.985,229.340 226.291,230.000 225.660 C 231.884 223.860,230.893 220.800,228.426 220.800 C 228.178 220.800,227.872 220.531,227.746 220.203 C 227.596 219.812,227.205 219.684,226.616 219.832 C 226.070 219.969,225.467 219.810,225.086 219.429 C 224.215 218.558,219.387 218.535,219.055 219.400 M295.345 220.707 C 294.874 221.748,294.385 222.915,294.257 223.300 C 294.130 223.685,293.845 224.000,293.625 224.000 C 293.405 224.000,293.328 224.268,293.454 224.597 C 293.583 224.932,293.413 225.297,293.067 225.430 C 292.728 225.560,292.539 225.898,292.648 226.181 C 292.756 226.464,292.475 227.354,292.023 228.160 C 291.570 228.965,291.200 229.895,291.200 230.225 C 291.200 230.555,290.941 230.924,290.625 231.046 C 290.309 231.167,290.148 231.520,290.267 231.830 C 290.386 232.140,290.189 232.506,289.830 232.644 C 289.405 232.807,289.260 233.160,289.416 233.649 C 289.568 234.131,289.429 234.491,289.030 234.644 C 288.686 234.776,288.500 235.038,288.616 235.226 C 288.732 235.414,288.656 235.890,288.447 236.284 C 288.238 236.678,287.774 237.675,287.415 238.500 C 287.056 239.325,286.580 240.000,286.358 240.000 C 286.135 240.000,286.074 240.196,286.221 240.435 C 286.369 240.674,286.129 241.619,285.687 242.535 C 285.245 243.451,284.586 244.875,284.223 245.700 C 283.860 246.525,283.379 247.200,283.154 247.200 C 282.928 247.200,282.859 247.557,283.000 248.000 C 283.185 248.583,283.072 248.800,282.584 248.800 C 282.138 248.800,281.995 249.011,282.157 249.433 C 282.291 249.781,282.400 250.411,282.400 250.833 C 282.400 251.516,282.706 251.600,285.200 251.600 C 287.748 251.600,288.000 251.527,288.000 250.787 C 288.000 250.341,288.259 249.876,288.575 249.754 C 288.902 249.629,289.046 249.265,288.910 248.909 C 288.374 247.513,289.863 247.200,297.027 247.200 C 304.200 247.200,305.151 247.421,304.564 248.949 C 304.397 249.384,304.528 249.600,304.957 249.600 C 305.516 249.600,305.804 250.310,305.647 251.300 C 305.621 251.465,306.840 251.600,308.356 251.600 L 311.112 251.600 311.276 250.200 C 311.366 249.430,311.304 248.800,311.138 248.800 C 310.973 248.800,310.541 248.125,310.178 247.300 C 309.815 246.475,309.336 245.412,309.112 244.938 C 308.889 244.464,308.827 243.879,308.976 243.638 C 309.132 243.387,308.961 243.200,308.577 243.200 C 308.104 243.200,307.968 242.965,308.116 242.400 C 308.231 241.960,308.170 241.600,307.981 241.600 C 307.792 241.600,307.340 240.925,306.977 240.100 C 306.614 239.275,305.955 237.851,305.513 236.935 C 305.071 236.019,304.819 235.093,304.953 234.877 C 305.086 234.661,304.908 234.373,304.556 234.239 C 304.205 234.104,304.014 233.740,304.133 233.430 C 304.252 233.120,304.091 232.767,303.775 232.646 C 303.459 232.524,303.200 232.070,303.200 231.636 C 303.200 231.202,303.008 230.728,302.773 230.583 C 302.538 230.438,302.436 230.082,302.547 229.793 C 302.659 229.503,302.470 229.159,302.129 229.028 C 301.752 228.883,301.588 228.489,301.710 228.021 C 301.831 227.561,301.671 227.159,301.314 227.022 C 300.983 226.895,300.819 226.527,300.946 226.197 C 301.072 225.868,301.009 225.600,300.806 225.600 C 300.603 225.600,300.141 224.925,299.778 224.100 C 299.415 223.275,298.936 222.212,298.712 221.738 C 298.489 221.264,298.427 220.679,298.576 220.438 C 298.728 220.192,298.574 220.000,298.224 220.000 C 297.881 220.000,297.600 219.730,297.600 219.400 C 297.600 218.042,296.176 218.867,295.345 220.707 M91.200 235.800 L 91.200 251.600 94.217 251.600 L 97.234 251.600 97.180 245.149 L 97.125 238.697 99.650 236.150 C 102.419 233.355,102.436 233.355,103.965 236.100 C 104.424 236.925,105.143 238.205,105.562 238.945 C 105.982 239.685,106.567 240.720,106.862 241.245 C 107.158 241.770,107.490 242.290,107.600 242.400 C 107.972 242.772,109.220 244.991,109.906 246.500 C 110.282 247.325,110.726 248.000,110.894 248.000 C 111.062 248.000,111.200 248.183,111.200 248.406 C 111.200 250.308,113.009 251.590,115.700 251.595 C 118.743 251.601,119.331 250.613,117.600 248.400 C 117.170 247.850,116.814 247.283,116.809 247.141 C 116.804 246.998,116.080 245.697,115.200 244.248 C 114.320 242.800,113.600 241.431,113.600 241.207 C 113.600 240.983,113.441 240.800,113.247 240.800 C 113.052 240.800,112.793 240.485,112.671 240.100 C 112.454 239.415,111.196 237.196,110.800 236.800 C 110.690 236.690,110.358 236.170,110.062 235.645 C 109.767 235.120,109.160 234.040,108.714 233.245 C 108.268 232.450,107.655 231.445,107.352 231.011 C 106.460 229.736,106.603 229.508,111.000 225.181 C 116.116 220.147,116.148 220.000,112.129 220.000 L 109.057 220.000 105.829 223.081 C 104.053 224.775,101.385 227.318,99.900 228.730 L 97.200 231.299 97.200 225.649 L 97.200 220.000 94.200 220.000 L 91.200 220.000 91.200 235.800 M129.534 230.700 C 129.417 239.354,129.493 241.465,129.929 241.739 C 130.264 241.950,130.376 242.440,130.226 243.039 C 130.093 243.567,130.160 244.000,130.374 244.000 C 130.587 244.000,131.047 244.585,131.395 245.300 C 132.484 247.541,135.824 250.400,137.352 250.400 C 137.687 250.400,138.104 250.625,138.280 250.900 C 138.503 251.248,139.877 251.400,142.800 251.400 C 145.723 251.400,147.097 251.248,147.320 250.900 C 147.496 250.625,147.913 250.400,148.248 250.400 C 149.220 250.400,152.297 248.097,153.067 246.794 C 153.455 246.137,153.914 245.600,154.086 245.600 C 154.259 245.600,154.400 245.240,154.400 244.800 C 154.400 244.360,154.666 244.000,154.990 244.000 C 155.425 244.000,155.520 243.701,155.353 242.865 C 155.203 242.114,155.341 241.516,155.763 241.094 C 156.312 240.545,156.400 239.051,156.400 230.229 L 156.400 220.000 153.400 220.000 L 150.400 220.000 150.400 230.213 C 150.400 239.089,150.318 240.456,149.777 240.664 C 149.413 240.804,149.253 241.161,149.392 241.522 C 149.689 242.297,146.082 245.717,145.289 245.413 C 144.987 245.297,144.471 245.472,144.142 245.801 C 143.367 246.576,142.221 246.564,141.430 245.773 C 141.068 245.411,140.483 245.247,140.049 245.385 C 139.564 245.538,139.207 245.396,139.050 244.987 C 138.916 244.636,138.636 244.454,138.429 244.582 C 138.035 244.826,136.347 242.779,135.803 241.400 C 135.630 240.960,135.530 235.965,135.580 230.300 L 135.673 220.000 132.675 220.000 L 129.678 220.000 129.534 230.700 M246.000 235.167 C 246.000 252.866,245.781 251.600,248.843 251.600 L 251.200 251.600 251.200 245.600 L 251.200 239.600 254.212 236.627 L 257.224 233.654 258.212 235.219 C 258.755 236.080,259.200 236.968,259.200 237.192 C 259.200 237.416,259.335 237.601,259.500 237.603 C 259.665 237.605,259.998 238.010,260.240 238.503 C 261.069 240.190,262.600 243.000,262.800 243.200 C 262.994 243.394,263.182 243.714,264.884 246.755 C 265.330 247.550,266.033 248.678,266.447 249.262 C 266.861 249.846,267.200 250.611,267.200 250.962 C 267.200 251.496,267.754 251.600,270.600 251.600 C 273.960 251.600,274.000 251.588,274.000 250.600 C 274.000 250.015,273.770 249.600,273.447 249.600 C 273.142 249.600,272.790 249.285,272.664 248.900 C 272.402 248.100,270.668 245.112,269.553 243.538 C 269.139 242.954,268.800 242.357,268.800 242.210 C 268.800 242.064,268.299 241.192,267.688 240.272 C 267.076 239.352,266.311 238.060,265.988 237.400 C 265.665 236.740,265.311 236.110,265.201 236.000 C 265.090 235.890,264.803 235.440,264.562 235.000 C 263.521 233.095,262.987 232.187,262.799 232.000 C 261.024 230.230,261.222 229.791,265.923 225.077 C 271.288 219.697,271.229 220.000,266.905 220.000 L 263.410 220.000 257.749 225.651 C 254.467 228.927,251.902 231.186,251.644 231.027 C 251.354 230.848,251.200 228.885,251.200 225.376 L 251.200 220.000 248.600 220.000 L 246.000 220.000 246.000 235.167 M297.404 231.186 C 297.265 231.625,297.414 231.997,297.788 232.140 C 298.125 232.269,298.400 232.730,298.400 233.164 C 298.400 233.598,298.587 234.069,298.816 234.210 C 299.045 234.352,299.123 234.812,298.989 235.234 C 298.815 235.782,298.938 236.000,299.420 236.000 C 299.889 236.000,300.032 236.235,299.891 236.774 C 299.774 237.222,299.923 237.638,300.244 237.762 C 300.550 237.879,300.800 238.330,300.800 238.764 C 300.800 239.198,300.992 239.672,301.227 239.817 C 301.462 239.962,301.566 240.311,301.459 240.592 C 301.351 240.873,301.464 241.304,301.711 241.551 C 302.043 241.883,300.835 242.000,297.080 242.000 C 292.241 242.000,292.000 241.962,292.000 241.187 C 292.000 240.741,292.250 240.279,292.556 240.162 C 292.862 240.044,293.026 239.621,292.921 239.219 C 292.816 238.818,292.926 238.369,293.165 238.222 C 293.404 238.074,293.600 237.598,293.600 237.164 C 293.600 236.730,293.850 236.279,294.156 236.162 C 294.477 236.038,294.626 235.622,294.509 235.174 C 294.368 234.635,294.511 234.400,294.980 234.400 C 295.462 234.400,295.585 234.182,295.411 233.634 C 295.277 233.212,295.355 232.752,295.584 232.610 C 295.813 232.469,296.000 232.039,296.000 231.656 C 296.000 230.816,296.791 229.947,297.280 230.250 C 297.474 230.369,297.530 230.791,297.404 231.186 " stroke="none" fill="#040404" fill-rule="evenodd"></path><path id="path3" d="M161.413 115.979 C 160.992 116.661,162.790 116.833,169.101 116.714 C 172.825 116.645,175.202 116.444,175.202 116.200 C 175.201 115.657,161.745 115.442,161.413 115.979 M224.400 116.000 C 224.400 116.220,224.861 116.400,225.424 116.400 C 226.004 116.400,226.340 116.227,226.200 116.000 C 226.064 115.780,225.603 115.600,225.176 115.600 C 224.749 115.600,224.400 115.780,224.400 116.000 M235.800 116.000 C 235.936 116.220,236.587 116.400,237.247 116.400 C 237.945 116.400,238.344 116.233,238.200 116.000 C 238.064 115.780,237.413 115.600,236.753 115.600 C 236.055 115.600,235.656 115.767,235.800 116.000 M157.400 116.800 C 157.264 117.020,156.623 117.200,155.976 117.200 C 155.329 117.200,154.800 117.380,154.800 117.600 C 154.800 117.820,154.260 118.000,153.600 118.000 C 152.940 118.000,152.400 118.180,152.400 118.400 C 152.400 118.620,152.040 118.800,151.600 118.800 C 151.160 118.800,150.800 118.980,150.800 119.200 C 150.800 119.420,150.457 119.600,150.038 119.600 C 149.131 119.600,146.000 121.208,146.000 121.674 C 146.000 121.853,145.680 122.000,145.288 122.000 C 144.897 122.000,144.317 122.360,144.000 122.800 C 143.683 123.240,143.211 123.600,142.952 123.600 C 142.693 123.600,141.562 124.500,140.439 125.600 C 139.315 126.700,138.211 127.600,137.985 127.600 C 137.760 127.600,137.455 127.915,137.308 128.300 C 137.161 128.685,136.177 129.843,135.121 130.874 C 134.064 131.905,133.200 132.990,133.200 133.286 C 133.200 133.581,132.840 134.083,132.400 134.400 C 131.960 134.717,131.600 135.297,131.600 135.688 C 131.600 136.080,131.453 136.400,131.274 136.400 C 130.808 136.400,129.200 139.531,129.200 140.438 C 129.200 140.857,129.020 141.200,128.800 141.200 C 128.580 141.200,128.400 141.560,128.400 142.000 C 128.400 142.440,128.220 142.800,128.000 142.800 C 127.780 142.800,127.600 143.340,127.600 144.000 C 127.600 144.660,127.420 145.200,127.200 145.200 C 126.980 145.200,126.800 145.845,126.800 146.633 C 126.800 148.441,127.744 148.303,127.925 146.469 C 127.994 145.771,128.219 145.200,128.425 145.200 C 128.631 145.200,128.800 144.838,128.800 144.395 C 128.800 143.952,128.964 143.277,129.165 142.895 C 129.366 142.513,129.997 141.210,130.567 140.000 C 131.965 137.032,132.863 135.529,133.700 134.754 C 134.085 134.398,134.400 133.929,134.400 133.712 C 134.400 133.171,141.841 125.600,142.372 125.600 C 142.608 125.600,142.800 125.420,142.800 125.200 C 142.800 124.980,143.030 124.800,143.312 124.800 C 143.593 124.800,144.083 124.440,144.400 124.000 C 144.717 123.560,145.214 123.200,145.505 123.200 C 145.796 123.200,146.420 122.840,146.892 122.400 C 147.364 121.960,147.987 121.600,148.275 121.600 C 148.564 121.600,148.800 121.420,148.800 121.200 C 148.800 120.980,149.250 120.800,149.800 120.800 C 150.350 120.800,150.800 120.620,150.800 120.400 C 150.800 120.180,151.250 120.000,151.800 120.000 C 152.350 120.000,152.800 119.820,152.800 119.600 C 152.800 119.380,153.239 119.200,153.776 119.200 C 154.313 119.200,154.864 119.020,155.000 118.800 C 155.136 118.580,155.676 118.400,156.200 118.400 C 156.724 118.400,157.264 118.220,157.400 118.000 C 157.536 117.780,158.357 117.600,159.224 117.600 C 160.358 117.600,160.800 117.432,160.800 117.000 C 160.800 116.304,157.815 116.128,157.400 116.800 M176.000 117.042 C 176.000 117.549,176.334 117.652,177.592 117.532 C 178.632 117.433,179.251 117.557,179.379 117.890 C 179.487 118.171,180.121 118.400,180.787 118.400 C 181.454 118.400,182.000 118.580,182.000 118.800 C 182.000 119.020,182.362 119.200,182.805 119.200 C 183.248 119.200,183.968 119.380,184.405 119.600 C 184.842 119.820,185.558 120.180,185.995 120.400 C 186.432 120.620,187.062 120.800,187.395 120.800 C 187.728 120.800,188.000 120.959,188.000 121.153 C 188.000 121.348,188.315 121.607,188.700 121.729 C 189.742 122.059,191.709 123.304,192.446 124.100 C 192.802 124.485,193.271 124.800,193.488 124.800 C 193.704 124.800,194.446 125.340,195.137 126.000 C 195.828 126.660,196.562 127.200,196.770 127.200 C 196.977 127.200,198.005 128.055,199.053 129.100 C 200.102 130.145,200.728 130.693,200.446 130.318 C 200.163 129.942,200.046 129.449,200.187 129.221 C 200.465 128.771,198.699 126.800,198.019 126.800 C 197.789 126.800,196.859 126.080,195.952 125.200 C 195.045 124.320,194.095 123.600,193.840 123.600 C 193.585 123.600,193.117 123.240,192.800 122.800 C 192.483 122.360,191.986 122.000,191.695 122.000 C 191.404 122.000,190.780 121.640,190.308 121.200 C 189.836 120.760,189.213 120.400,188.925 120.400 C 188.636 120.400,188.400 120.220,188.400 120.000 C 188.400 119.780,187.860 119.600,187.200 119.600 C 186.540 119.600,186.000 119.420,186.000 119.200 C 186.000 118.980,185.640 118.800,185.200 118.800 C 184.760 118.800,184.400 118.620,184.400 118.400 C 184.400 118.180,183.860 118.000,183.200 118.000 C 182.540 118.000,182.000 117.820,182.000 117.600 C 182.000 117.380,181.471 117.200,180.824 117.200 C 180.177 117.200,179.536 117.020,179.400 116.800 C 178.965 116.097,176.000 116.308,176.000 117.042 M254.800 122.225 C 254.800 122.525,255.873 123.600,256.171 123.600 C 256.680 123.600,256.351 122.962,255.600 122.493 C 255.160 122.218,254.800 122.098,254.800 122.225 M203.018 125.418 C 202.387 125.960,201.979 126.512,202.111 126.644 C 202.243 126.777,202.832 126.405,203.418 125.818 C 204.005 125.232,204.413 124.680,204.325 124.592 C 204.237 124.504,203.649 124.876,203.018 125.418 M258.022 124.700 C 258.034 124.865,258.619 125.446,259.322 125.992 C 260.304 126.754,260.461 126.801,260.000 126.194 C 258.753 124.550,257.967 123.957,258.022 124.700 M165.481 125.053 C 164.732 125.801,165.519 126.000,169.233 126.000 C 172.282 126.000,173.226 125.878,173.101 125.500 C 172.920 124.954,165.987 124.547,165.481 125.053 M224.800 125.550 C 224.800 125.743,225.250 125.900,225.800 125.900 C 226.350 125.900,226.800 125.743,226.800 125.550 C 226.800 125.358,226.350 125.200,225.800 125.200 C 225.250 125.200,224.800 125.358,224.800 125.550 M236.400 125.600 C 236.400 125.820,236.659 126.000,236.976 126.000 C 237.293 126.000,237.664 125.820,237.800 125.600 C 237.936 125.380,237.677 125.200,237.224 125.200 C 236.771 125.200,236.400 125.380,236.400 125.600 M160.800 126.177 C 160.800 126.650,161.240 126.800,162.633 126.800 C 164.994 126.800,164.855 125.853,162.469 125.677 C 161.172 125.581,160.800 125.693,160.800 126.177 M174.267 125.867 C 173.616 126.517,174.141 126.800,176.000 126.800 C 177.100 126.800,178.000 126.980,178.000 127.200 C 178.000 127.420,178.540 127.600,179.200 127.600 C 179.860 127.600,180.400 127.780,180.400 128.000 C 180.400 128.220,180.749 128.400,181.176 128.400 C 181.603 128.400,182.064 128.580,182.200 128.800 C 182.336 129.020,182.804 129.200,183.240 129.200 C 183.677 129.200,184.420 129.560,184.892 130.000 C 185.364 130.440,185.987 130.800,186.275 130.800 C 186.564 130.800,186.800 130.980,186.800 131.200 C 186.800 131.420,187.088 131.600,187.440 131.600 C 187.791 131.600,188.583 132.140,189.200 132.800 C 189.817 133.460,190.513 134.000,190.749 134.000 C 190.984 134.000,191.565 134.525,192.039 135.168 C 192.560 135.872,193.134 136.247,193.485 136.112 C 194.143 135.859,199.600 141.038,199.600 141.915 C 199.600 142.210,203.203 146.035,207.606 150.416 L 215.613 158.381 207.606 166.423 C 203.203 170.846,199.600 174.651,199.600 174.879 C 199.600 175.536,205.579 181.501,206.472 181.735 C 206.916 181.851,207.185 181.852,207.070 181.737 C 206.955 181.622,211.527 176.867,217.231 171.169 L 227.600 160.811 227.600 158.606 C 227.600 157.393,227.420 156.400,227.200 156.400 C 226.980 156.400,226.800 156.129,226.800 155.798 C 226.800 154.751,207.483 135.747,206.163 135.495 L 205.005 135.274 206.047 136.170 C 206.620 136.663,207.159 137.272,207.244 137.524 C 207.330 137.776,211.675 142.270,216.900 147.510 C 229.376 160.021,229.456 157.348,216.202 170.602 C 210.593 176.211,205.863 180.800,205.690 180.800 C 205.518 180.800,204.213 179.626,202.790 178.190 L 200.203 175.580 208.402 167.423 C 212.911 162.936,216.654 158.921,216.719 158.500 C 216.853 157.639,194.465 135.461,192.391 134.400 C 191.746 134.070,191.215 133.620,191.212 133.400 C 191.203 132.855,188.332 130.400,187.704 130.400 C 187.427 130.400,187.200 130.254,187.200 130.075 C 187.200 129.896,186.570 129.502,185.800 129.200 C 185.030 128.898,184.400 128.504,184.400 128.325 C 184.400 128.146,183.950 128.000,183.400 128.000 C 182.850 128.000,182.400 127.820,182.400 127.600 C 182.400 127.380,181.950 127.200,181.400 127.200 C 180.850 127.200,180.400 127.020,180.400 126.800 C 180.400 126.580,179.860 126.400,179.200 126.400 C 178.540 126.400,178.000 126.220,178.000 126.000 C 178.000 125.559,174.693 125.441,174.267 125.867 M158.000 126.761 C 155.952 127.834,155.551 128.000,155.005 128.000 C 154.672 128.000,154.400 128.180,154.400 128.400 C 154.400 128.620,154.040 128.800,153.600 128.800 C 153.160 128.800,152.800 128.980,152.800 129.200 C 152.800 129.420,152.440 129.600,152.000 129.600 C 151.560 129.600,151.200 129.780,151.200 130.000 C 151.200 130.220,150.918 130.400,150.574 130.400 C 149.182 130.400,139.200 141.258,139.200 142.772 C 139.200 143.007,139.020 143.200,138.800 143.200 C 138.580 143.200,138.400 143.560,138.400 144.000 C 138.400 144.440,138.220 144.800,138.000 144.800 C 137.780 144.800,137.600 145.149,137.600 145.576 C 137.600 146.003,137.420 146.464,137.200 146.600 C 136.980 146.736,136.800 147.287,136.800 147.824 C 136.800 148.361,136.620 148.800,136.400 148.800 C 136.180 148.800,136.000 149.430,136.000 150.200 C 136.000 150.970,135.810 151.600,135.578 151.600 C 134.976 151.600,135.281 155.298,135.900 155.502 C 136.256 155.619,136.400 155.081,136.400 153.633 C 136.400 152.515,136.580 151.600,136.800 151.600 C 137.020 151.600,137.200 151.060,137.200 150.400 C 137.200 149.740,137.380 149.200,137.600 149.200 C 137.820 149.200,138.000 148.660,138.000 148.000 C 138.000 147.340,138.180 146.800,138.400 146.800 C 138.620 146.800,138.800 146.440,138.800 146.000 C 138.800 145.560,138.980 145.200,139.200 145.200 C 139.420 145.200,139.600 144.840,139.600 144.400 C 139.600 143.960,139.780 143.600,140.000 143.600 C 140.220 143.600,140.400 143.328,140.400 142.996 C 140.400 142.664,140.940 141.828,141.600 141.137 C 142.260 140.446,142.800 139.718,142.800 139.519 C 142.800 138.898,150.348 131.600,150.991 131.600 C 151.326 131.600,151.601 131.465,151.603 131.300 C 151.607 130.941,153.544 130.000,154.280 130.000 C 154.566 130.000,154.800 129.820,154.800 129.600 C 154.800 129.380,155.160 129.200,155.600 129.200 C 156.040 129.200,156.400 129.020,156.400 128.800 C 156.400 128.580,156.760 128.400,157.200 128.400 C 157.640 128.400,158.000 128.161,158.000 127.869 C 158.000 127.507,158.381 127.394,159.200 127.515 C 160.110 127.648,160.400 127.535,160.400 127.045 C 160.400 126.357,159.073 126.200,158.000 126.761 M211.260 131.442 C 210.531 132.266,211.000 132.657,211.781 131.876 C 212.121 131.536,212.400 131.154,212.400 131.029 C 212.400 130.609,211.806 130.824,211.260 131.442 M252.400 132.618 C 252.400 133.032,254.449 134.884,254.667 134.667 C 254.787 134.547,254.424 133.988,253.861 133.424 C 252.865 132.428,252.400 132.172,252.400 132.618 M183.663 144.660 C 182.268 146.090,181.220 147.353,181.334 147.467 C 181.538 147.672,186.800 142.609,186.800 142.207 C 186.800 141.645,185.981 142.285,183.663 144.660 M126.000 150.000 C 126.000 151.156,126.153 151.616,126.500 151.500 C 126.775 151.408,127.000 150.733,127.000 150.000 C 127.000 149.267,126.775 148.592,126.500 148.500 C 126.153 148.384,126.000 148.844,126.000 150.000 M178.860 149.451 C 178.343 150.002,178.017 150.550,178.136 150.669 C 178.352 150.885,180.400 149.030,180.400 148.618 C 180.400 148.147,179.756 148.495,178.860 149.451 M191.053 151.031 C 189.982 152.026,189.209 152.942,189.334 153.068 C 189.459 153.193,189.795 153.038,190.081 152.724 C 190.366 152.410,191.220 151.488,191.978 150.676 C 193.853 148.669,193.415 148.837,191.053 151.031 M262.908 150.028 C 262.876 150.452,263.019 150.800,263.225 150.800 C 263.680 150.800,263.727 149.725,263.283 149.451 C 263.109 149.344,262.940 149.603,262.908 150.028 M175.660 152.651 C 175.143 153.202,174.817 153.750,174.936 153.869 C 175.152 154.085,177.200 152.230,177.200 151.818 C 177.200 151.347,176.556 151.695,175.660 152.651 M125.200 158.376 C 125.200 163.835,125.527 165.810,126.158 164.165 C 126.474 163.343,126.473 153.855,126.157 153.033 C 125.494 151.305,125.200 152.948,125.200 158.376 M263.949 153.700 C 263.704 154.179,263.783 155.600,264.055 155.600 C 264.245 155.600,264.400 155.150,264.400 154.600 C 264.400 153.772,264.158 153.290,263.949 153.700 M274.000 158.800 C 274.000 161.482,274.157 163.550,274.351 163.430 C 274.820 163.140,274.834 154.468,274.366 154.179 C 274.152 154.047,274.000 155.970,274.000 158.800 M172.893 155.600 C 172.618 156.040,172.498 156.400,172.625 156.400 C 172.925 156.400,174.000 155.327,174.000 155.029 C 174.000 154.520,173.362 154.849,172.893 155.600 M185.262 156.658 C 184.306 157.648,183.631 158.564,183.762 158.695 C 183.893 158.826,184.045 158.855,184.100 158.759 C 184.155 158.663,185.002 157.733,185.983 156.693 C 186.964 155.652,187.594 154.813,187.383 154.829 C 187.172 154.845,186.218 155.668,185.262 156.658 M134.656 156.278 C 134.331 156.602,134.320 161.326,134.642 162.165 C 135.156 163.505,135.600 162.225,135.600 159.400 C 135.600 156.670,135.290 155.644,134.656 156.278 M263.700 161.400 C 263.700 161.950,263.858 162.400,264.050 162.400 C 264.243 162.400,264.400 161.950,264.400 161.400 C 264.400 160.850,264.243 160.400,264.050 160.400 C 263.858 160.400,263.700 160.850,263.700 161.400 M177.387 166.387 C 179.792 168.799,181.830 170.703,181.916 170.618 C 182.115 170.419,173.709 162.000,173.311 162.000 C 173.148 162.000,174.982 163.974,177.387 166.387 M135.467 163.867 C 135.048 164.285,135.155 167.125,135.600 167.400 C 135.820 167.536,136.000 168.267,136.000 169.024 C 136.000 169.781,136.180 170.400,136.400 170.400 C 136.620 170.400,136.800 170.839,136.800 171.376 C 136.800 171.913,136.980 172.464,137.200 172.600 C 137.420 172.736,137.600 173.197,137.600 173.624 C 137.600 174.051,137.780 174.400,138.000 174.400 C 138.220 174.400,138.400 174.760,138.400 175.200 C 138.400 175.640,138.580 176.000,138.800 176.000 C 139.020 176.000,139.200 176.193,139.200 176.428 C 139.200 177.840,145.635 185.038,148.300 186.607 C 149.015 187.028,149.600 187.514,149.600 187.686 C 149.600 187.859,149.825 188.004,150.100 188.009 C 150.375 188.014,151.050 188.370,151.600 188.800 C 152.150 189.230,152.915 189.586,153.300 189.591 C 153.685 189.596,154.000 189.780,154.000 190.000 C 154.000 190.220,154.360 190.400,154.800 190.400 C 155.244 190.400,155.600 190.133,155.600 189.800 C 155.600 189.467,155.244 189.200,154.800 189.200 C 154.360 189.200,154.000 189.020,154.000 188.800 C 154.000 188.580,153.680 188.400,153.288 188.400 C 152.897 188.400,152.317 188.040,152.000 187.600 C 151.683 187.160,151.143 186.800,150.800 186.800 C 150.457 186.800,149.917 186.440,149.600 186.000 C 149.283 185.560,148.790 185.200,148.505 185.200 C 147.830 185.200,142.000 179.370,142.000 178.695 C 142.000 178.410,141.640 177.917,141.200 177.600 C 140.760 177.283,140.400 176.703,140.400 176.312 C 140.400 175.920,140.220 175.600,140.000 175.600 C 139.780 175.600,139.600 175.240,139.600 174.800 C 139.600 174.360,139.420 174.000,139.200 174.000 C 138.980 174.000,138.800 173.640,138.800 173.200 C 138.800 172.760,138.620 172.400,138.400 172.400 C 138.180 172.400,138.000 171.961,138.000 171.424 C 138.000 170.887,137.820 170.336,137.600 170.200 C 137.380 170.064,137.200 169.423,137.200 168.776 C 137.200 168.129,137.020 167.600,136.800 167.600 C 136.580 167.600,136.400 166.700,136.400 165.600 C 136.400 163.741,136.117 163.216,135.467 163.867 M126.000 167.167 C 126.000 168.285,126.180 169.200,126.400 169.200 C 126.620 169.200,126.800 169.819,126.800 170.576 C 126.800 171.333,126.980 172.064,127.200 172.200 C 127.420 172.336,127.600 172.876,127.600 173.400 C 127.600 173.924,127.780 174.464,128.000 174.600 C 128.220 174.736,128.400 175.197,128.400 175.624 C 128.400 176.051,128.580 176.400,128.800 176.400 C 129.020 176.400,129.200 176.760,129.200 177.200 C 129.200 177.640,129.380 178.000,129.600 178.000 C 129.820 178.000,130.000 178.360,130.000 178.800 C 130.000 179.240,130.180 179.600,130.400 179.600 C 130.620 179.600,130.800 179.920,130.800 180.312 C 130.800 180.703,131.160 181.283,131.600 181.600 C 132.040 181.917,132.400 182.457,132.400 182.800 C 132.400 183.143,132.760 183.683,133.200 184.000 C 133.640 184.317,134.000 184.790,134.000 185.052 C 134.000 185.648,140.597 192.400,141.179 192.400 C 141.415 192.400,142.172 192.940,142.863 193.600 C 143.554 194.260,144.362 194.800,144.659 194.800 C 144.957 194.800,145.200 194.980,145.200 195.200 C 145.200 195.420,145.560 195.600,146.000 195.600 C 146.440 195.600,146.800 195.752,146.800 195.937 C 146.800 196.123,147.655 196.682,148.700 197.181 C 149.745 197.680,150.913 198.248,151.295 198.444 C 151.677 198.640,152.262 198.800,152.595 198.800 C 152.928 198.800,153.200 198.980,153.200 199.200 C 153.200 199.420,153.740 199.600,154.400 199.600 C 155.060 199.600,155.600 199.780,155.600 200.000 C 155.600 200.220,156.320 200.400,157.200 200.400 C 158.080 200.400,158.800 200.580,158.800 200.800 C 158.800 201.020,159.790 201.200,161.000 201.200 C 162.689 201.200,163.200 201.061,163.200 200.600 C 163.200 200.140,162.692 200.000,161.024 200.000 C 159.827 200.000,158.736 199.820,158.600 199.600 C 158.464 199.380,157.834 199.200,157.200 199.200 C 156.566 199.200,155.936 199.020,155.800 198.800 C 155.664 198.580,155.201 198.400,154.771 198.400 C 154.341 198.400,153.677 198.241,153.295 198.046 C 152.609 197.696,148.246 195.512,146.503 194.646 C 146.010 194.401,145.605 194.065,145.603 193.900 C 145.601 193.735,145.330 193.600,145.000 193.600 C 144.670 193.600,144.400 193.420,144.400 193.200 C 144.400 192.980,144.212 192.800,143.982 192.800 C 143.752 192.800,143.114 192.350,142.564 191.800 C 142.014 191.250,141.422 190.800,141.249 190.800 C 140.837 190.800,135.449 185.338,135.236 184.704 C 135.145 184.434,134.875 184.006,134.636 183.752 C 133.541 182.590,132.800 181.558,132.800 181.195 C 132.800 180.978,132.620 180.800,132.400 180.800 C 132.180 180.800,132.000 180.440,132.000 180.000 C 132.000 179.560,131.865 179.199,131.700 179.197 C 131.341 179.193,130.400 177.256,130.400 176.520 C 130.400 176.234,130.220 176.000,130.000 176.000 C 129.780 176.000,129.600 175.640,129.600 175.200 C 129.600 174.760,129.420 174.400,129.200 174.400 C 128.980 174.400,128.800 173.860,128.800 173.200 C 128.800 172.540,128.620 172.000,128.400 172.000 C 128.180 172.000,128.000 171.496,128.000 170.880 C 128.000 170.264,127.831 169.589,127.625 169.380 C 127.419 169.171,127.194 168.204,127.125 167.231 C 126.942 164.641,126.000 164.587,126.000 167.167 M273.412 167.317 C 273.241 167.712,273.213 168.147,273.351 168.284 C 273.757 168.690,274.084 168.120,273.897 167.331 C 273.732 166.633,273.710 166.632,273.412 167.317 M271.600 173.400 C 271.600 173.730,271.780 174.000,272.000 174.000 C 272.220 174.000,272.400 173.730,272.400 173.400 C 272.400 173.070,272.220 172.800,272.000 172.800 C 271.780 172.800,271.600 173.070,271.600 173.400 M190.800 183.200 C 189.810 184.276,188.809 185.166,188.575 185.178 C 188.342 185.190,187.802 185.515,187.375 185.900 C 186.949 186.285,186.105 186.855,185.500 187.168 C 184.895 187.480,184.400 187.885,184.400 188.068 C 184.400 188.250,184.040 188.400,183.600 188.400 C 183.160 188.400,182.800 188.580,182.800 188.800 C 182.800 189.020,182.440 189.200,182.000 189.200 C 181.560 189.200,181.200 189.439,181.200 189.731 C 181.200 190.093,180.819 190.206,180.000 190.085 C 179.090 189.952,178.800 190.065,178.800 190.555 C 178.800 191.264,179.983 191.416,181.105 190.850 C 181.487 190.658,182.520 190.149,183.400 189.720 C 185.648 188.624,186.834 187.910,187.755 187.100 C 188.193 186.715,188.721 186.400,188.929 186.400 C 189.136 186.400,189.604 186.085,189.969 185.700 C 190.333 185.315,191.391 184.287,192.319 183.416 L 194.006 181.831 196.317 184.016 L 198.627 186.200 196.157 183.700 C 193.208 180.715,193.096 180.704,190.800 183.200 M208.400 182.969 C 208.400 183.424,210.435 185.298,210.672 185.061 C 210.895 184.838,210.415 184.286,209.098 183.251 C 208.714 182.949,208.400 182.822,208.400 182.969 M266.500 183.398 C 265.931 184.045,265.861 184.400,266.304 184.400 C 266.471 184.400,266.832 184.040,267.107 183.600 C 267.678 182.687,267.251 182.545,266.500 183.398 M250.629 184.229 C 250.205 184.538,249.972 184.905,250.110 185.043 C 250.249 185.182,250.662 184.995,251.029 184.629 C 251.891 183.766,251.625 183.500,250.629 184.229 M211.600 185.425 C 211.600 185.725,212.673 186.800,212.971 186.800 C 213.480 186.800,213.151 186.162,212.400 185.693 C 211.960 185.418,211.600 185.298,211.600 185.425 M199.200 187.175 C 199.200 187.716,195.344 191.457,193.900 192.317 C 193.295 192.678,192.800 193.114,192.800 193.286 C 192.800 193.459,192.530 193.600,192.200 193.600 C 191.870 193.600,191.600 193.736,191.600 193.902 C 191.600 194.069,191.015 194.459,190.300 194.770 C 189.585 195.081,188.910 195.440,188.800 195.568 C 188.394 196.040,186.792 196.800,186.205 196.800 C 185.872 196.800,185.600 196.980,185.600 197.200 C 185.600 197.420,185.240 197.600,184.800 197.600 C 184.360 197.600,184.000 197.780,184.000 198.000 C 184.000 198.220,183.460 198.400,182.800 198.400 C 182.140 198.400,181.600 198.580,181.600 198.800 C 181.600 199.020,181.096 199.200,180.480 199.200 C 179.864 199.200,179.189 199.369,178.980 199.575 C 178.771 199.781,177.804 200.006,176.831 200.075 C 174.241 200.258,174.187 201.200,176.767 201.200 C 177.885 201.200,178.800 201.020,178.800 200.800 C 178.800 200.580,179.520 200.400,180.400 200.400 C 181.280 200.400,182.000 200.220,182.000 200.000 C 182.000 199.780,182.439 199.600,182.976 199.600 C 183.513 199.600,184.064 199.420,184.200 199.200 C 184.336 198.980,184.797 198.800,185.224 198.800 C 185.651 198.800,186.000 198.620,186.000 198.400 C 186.000 198.180,186.360 198.000,186.800 198.000 C 187.240 198.000,187.600 197.820,187.600 197.600 C 187.600 197.380,187.960 197.200,188.400 197.200 C 188.840 197.200,189.200 197.020,189.200 196.800 C 189.200 196.580,189.520 196.400,189.912 196.400 C 190.303 196.400,190.883 196.040,191.200 195.600 C 191.517 195.160,192.057 194.800,192.400 194.800 C 192.743 194.800,193.283 194.440,193.600 194.000 C 193.917 193.560,194.411 193.200,194.697 193.200 C 194.983 193.200,196.207 192.210,197.417 191.000 C 198.627 189.790,199.777 188.800,199.971 188.800 C 200.398 188.800,200.049 187.277,199.552 186.970 C 199.358 186.851,199.200 186.943,199.200 187.175 M263.300 187.398 C 262.731 188.045,262.661 188.400,263.104 188.400 C 263.271 188.400,263.632 188.040,263.907 187.600 C 264.478 186.687,264.051 186.545,263.300 187.398 M156.000 190.600 C 156.000 191.000,156.400 191.200,157.200 191.200 C 157.860 191.200,158.400 191.380,158.400 191.600 C 158.400 191.820,159.030 192.000,159.800 192.000 C 160.778 192.000,161.200 191.819,161.200 191.400 C 161.200 191.003,160.803 190.800,160.024 190.800 C 159.377 190.800,158.736 190.620,158.600 190.400 C 158.195 189.744,156.000 189.913,156.000 190.600 M221.200 190.435 C 221.200 190.636,221.590 190.800,222.067 190.800 C 222.543 190.800,222.808 190.675,222.655 190.522 C 222.223 190.089,221.200 190.029,221.200 190.435 M237.400 190.400 C 237.264 190.620,237.423 190.800,237.753 190.800 C 238.083 190.800,238.464 190.620,238.600 190.400 C 238.736 190.180,238.577 190.000,238.247 190.000 C 237.917 190.000,237.536 190.180,237.400 190.400 M175.600 191.400 C 175.600 191.819,176.022 192.000,177.000 192.000 C 177.978 192.000,178.400 191.819,178.400 191.400 C 178.400 190.981,177.978 190.800,177.000 190.800 C 176.022 190.800,175.600 190.981,175.600 191.400 M226.000 191.200 C 226.000 191.420,226.259 191.600,226.576 191.600 C 226.893 191.600,227.264 191.420,227.400 191.200 C 227.536 190.980,227.277 190.800,226.824 190.800 C 226.371 190.800,226.000 190.980,226.000 191.200 M232.400 191.285 C 232.400 191.458,232.760 191.600,233.200 191.600 C 233.640 191.600,234.000 191.431,234.000 191.225 C 234.000 191.019,233.640 190.877,233.200 190.910 C 232.760 190.943,232.400 191.112,232.400 191.285 M259.300 191.398 C 258.557 192.242,258.694 192.473,259.600 191.907 C 260.040 191.632,260.400 191.271,260.400 191.104 C 260.400 190.627,259.849 190.775,259.300 191.398 M161.600 192.219 C 161.600 192.724,162.056 192.816,164.068 192.719 C 167.618 192.548,167.758 191.600,164.233 191.600 C 162.123 191.600,161.600 191.723,161.600 192.219 M170.098 192.100 C 170.363 192.900,175.200 193.013,175.200 192.219 C 175.200 191.723,174.677 191.600,172.567 191.600 C 170.639 191.600,169.978 191.734,170.098 192.100 M167.700 192.900 C 167.792 193.175,168.107 193.400,168.400 193.400 C 168.693 193.400,169.008 193.175,169.100 192.900 C 169.199 192.603,168.916 192.400,168.400 192.400 C 167.884 192.400,167.601 192.603,167.700 192.900 M256.100 193.798 C 255.357 194.642,255.494 194.873,256.400 194.307 C 256.840 194.032,257.200 193.671,257.200 193.504 C 257.200 193.027,256.649 193.175,256.100 193.798 M240.600 200.800 C 240.736 201.020,241.107 201.200,241.424 201.200 C 241.741 201.200,242.000 201.020,242.000 200.800 C 242.000 200.580,241.629 200.400,241.176 200.400 C 240.723 200.400,240.464 200.580,240.600 200.800 M166.600 201.163 C 165.177 201.332,164.811 201.487,165.333 201.700 C 166.350 202.117,173.505 202.078,173.766 201.655 C 173.966 201.331,170.519 200.736,169.200 200.866 C 168.870 200.899,167.700 201.032,166.600 201.163 M227.800 201.600 C 228.927 202.084,235.501 202.084,235.800 201.600 C 235.960 201.342,234.444 201.210,231.524 201.228 C 228.624 201.246,227.287 201.380,227.800 201.600 M220.400 218.400 C 220.400 218.620,221.120 218.800,222.000 218.800 C 222.880 218.800,223.600 218.620,223.600 218.400 C 223.600 218.180,222.880 218.000,222.000 218.000 C 221.120 218.000,220.400 218.180,220.400 218.400 M296.200 218.400 C 296.061 218.626,296.385 218.800,296.943 218.800 C 297.488 218.800,298.014 219.025,298.112 219.300 C 298.210 219.575,298.437 219.663,298.616 219.496 C 298.973 219.162,297.685 218.033,296.924 218.013 C 296.662 218.006,296.336 218.180,296.200 218.400 M90.267 219.067 C 89.820 219.513,89.951 251.122,90.400 251.400 C 90.664 251.563,90.800 246.071,90.800 235.224 C 90.800 226.191,90.740 218.800,90.667 218.800 C 90.593 218.800,90.413 218.920,90.267 219.067 M108.400 219.200 C 108.400 219.420,108.670 219.600,109.000 219.600 C 109.330 219.600,109.600 219.420,109.600 219.200 C 109.600 218.980,109.330 218.800,109.000 218.800 C 108.670 218.800,108.400 218.980,108.400 219.200 M171.600 219.013 C 171.600 219.390,174.446 222.087,174.640 221.893 C 174.743 221.791,174.173 221.053,173.373 220.253 C 171.949 218.829,171.600 218.585,171.600 219.013 M258.234 223.868 C 255.467 226.655,253.280 229.013,253.374 229.107 C 253.468 229.202,255.712 227.101,258.361 224.439 C 261.009 221.778,263.362 219.600,263.588 219.600 C 263.815 219.600,264.000 219.420,264.000 219.200 C 264.000 218.260,262.990 219.077,258.234 223.868 M270.800 219.976 C 270.800 220.649,270.620 221.200,270.400 221.200 C 270.180 221.200,270.000 221.408,270.000 221.662 C 270.000 221.924,270.346 221.811,270.800 221.400 C 271.654 220.627,271.858 219.407,271.200 219.000 C 270.967 218.856,270.800 219.263,270.800 219.976 M128.667 219.467 C 128.223 219.910,128.352 240.323,128.800 240.600 C 129.063 240.762,129.200 237.137,129.200 230.024 C 129.200 224.071,129.140 219.200,129.067 219.200 C 128.993 219.200,128.813 219.320,128.667 219.467 M149.467 219.467 C 149.024 219.909,149.152 238.723,149.600 239.000 C 149.863 239.162,150.000 235.804,150.000 229.224 C 150.000 223.711,149.940 219.200,149.867 219.200 C 149.793 219.200,149.613 219.320,149.467 219.467 M198.006 235.300 C 198.002 245.904,198.140 251.600,198.400 251.600 C 198.936 251.600,198.936 220.429,198.400 219.600 C 198.146 219.207,198.010 224.628,198.006 235.300 M97.200 224.776 C 97.200 227.992,97.354 230.000,97.600 230.000 C 97.845 230.000,98.000 228.075,98.000 225.024 C 98.000 222.137,97.832 219.943,97.600 219.800 C 97.341 219.640,97.200 221.396,97.200 224.776 M135.600 229.800 C 135.600 236.333,135.744 240.000,136.000 240.000 C 136.256 240.000,136.400 236.333,136.400 229.800 C 136.400 223.267,136.256 219.600,136.000 219.600 C 135.744 219.600,135.600 223.267,135.600 229.800 M156.400 229.624 C 156.400 236.204,156.537 239.562,156.800 239.400 C 157.049 239.246,157.200 235.463,157.200 229.376 C 157.200 223.125,157.056 219.600,156.800 219.600 C 156.544 219.600,156.400 223.208,156.400 229.624 M191.067 219.867 C 190.621 220.313,190.751 238.000,191.200 238.000 C 191.455 238.000,191.600 234.667,191.600 228.800 C 191.600 223.740,191.540 219.600,191.467 219.600 C 191.393 219.600,191.213 219.720,191.067 219.867 M168.667 220.267 C 168.221 220.713,168.351 250.322,168.800 250.600 C 169.064 250.763,169.200 245.604,169.200 235.424 C 169.200 226.941,169.140 220.000,169.067 220.000 C 168.993 220.000,168.813 220.120,168.667 220.267 M230.000 220.712 C 230.000 220.883,230.360 221.283,230.800 221.600 C 232.081 222.523,231.866 224.631,230.345 226.051 C 229.655 226.696,229.181 227.314,229.292 227.425 C 229.403 227.536,230.147 226.973,230.947 226.173 C 232.714 224.406,232.869 222.832,231.418 221.382 C 230.402 220.365,230.000 220.176,230.000 220.712 M112.464 224.662 C 110.629 226.532,109.193 228.126,109.272 228.206 C 109.415 228.348,116.400 221.625,116.400 221.345 C 116.400 220.827,115.400 221.670,112.464 224.662 M264.864 226.661 C 263.249 228.311,262.005 229.738,262.100 229.833 C 262.269 230.003,266.882 225.632,267.949 224.290 C 269.325 222.560,267.522 223.945,264.864 226.661 M292.400 224.200 C 292.400 224.530,292.580 224.800,292.800 224.800 C 293.020 224.800,293.200 224.530,293.200 224.200 C 293.200 223.870,293.020 223.600,292.800 223.600 C 292.580 223.600,292.400 223.870,292.400 224.200 M100.193 226.807 C 99.337 227.683,98.770 228.400,98.932 228.400 C 99.340 228.400,102.119 225.586,101.914 225.381 C 101.823 225.289,101.048 225.931,100.193 226.807 M219.600 225.600 C 219.600 225.820,219.960 226.000,220.400 226.000 C 220.840 226.000,221.200 225.820,221.200 225.600 C 221.200 225.380,220.840 225.200,220.400 225.200 C 219.960 225.200,219.600 225.380,219.600 225.600 M222.800 225.600 C 222.800 225.820,223.070 226.000,223.400 226.000 C 223.730 226.000,224.000 225.820,224.000 225.600 C 224.000 225.380,223.730 225.200,223.400 225.200 C 223.070 225.200,222.800 225.380,222.800 225.600 M225.200 226.229 C 225.200 226.653,226.436 227.697,226.667 227.467 C 226.792 227.341,226.617 226.960,226.276 226.619 C 225.641 225.984,225.200 225.824,225.200 226.229 M181.200 227.726 C 181.200 228.137,189.629 236.504,189.836 236.298 C 189.931 236.202,188.683 234.791,187.062 233.162 C 182.869 228.949,181.200 227.401,181.200 227.726 M262.800 230.967 C 262.800 231.388,264.005 232.528,264.221 232.312 C 264.322 232.211,264.044 231.802,263.602 231.402 C 263.161 231.003,262.800 230.807,262.800 230.967 M296.400 231.800 C 296.400 232.130,296.580 232.400,296.800 232.400 C 297.020 232.400,297.200 232.130,297.200 231.800 C 297.200 231.470,297.020 231.200,296.800 231.200 C 296.580 231.200,296.400 231.470,296.400 231.800 M288.578 232.835 C 288.431 233.074,288.510 233.470,288.755 233.715 C 289.082 234.042,289.200 233.926,289.200 233.280 C 289.200 232.314,288.992 232.165,288.578 232.835 M175.600 242.400 C 175.600 248.267,175.745 251.600,176.000 251.600 C 176.254 251.600,176.400 248.459,176.400 242.976 C 176.400 237.329,176.538 234.438,176.800 234.600 C 177.020 234.736,177.200 234.734,177.200 234.595 C 177.200 234.280,176.138 233.200,175.829 233.200 C 175.703 233.200,175.600 237.340,175.600 242.400 M230.800 234.969 C 230.800 235.329,232.811 237.323,232.992 237.142 C 233.070 237.063,232.924 236.729,232.667 236.399 C 232.031 235.583,230.800 234.640,230.800 234.969 M254.463 237.059 C 253.287 238.269,252.420 239.353,252.535 239.468 C 252.730 239.663,255.522 237.027,256.749 235.488 C 257.960 233.970,256.470 234.994,254.463 237.059 M294.800 235.800 C 294.800 236.130,294.980 236.400,295.200 236.400 C 295.420 236.400,295.600 236.130,295.600 235.800 C 295.600 235.470,295.420 235.200,295.200 235.200 C 294.980 235.200,294.800 235.470,294.800 235.800 M298.800 237.400 C 298.800 237.730,298.980 238.000,299.200 238.000 C 299.420 238.000,299.600 237.730,299.600 237.400 C 299.600 237.070,299.420 236.800,299.200 236.800 C 298.980 236.800,298.800 237.070,298.800 237.400 M233.200 238.600 C 233.200 238.930,233.380 239.200,233.600 239.200 C 233.820 239.200,234.000 238.930,234.000 238.600 C 234.000 238.270,233.820 238.000,233.600 238.000 C 233.380 238.000,233.200 238.270,233.200 238.600 M293.200 239.600 C 293.200 240.347,293.307 240.453,293.680 240.080 C 294.053 239.707,294.053 239.493,293.680 239.120 C 293.307 238.747,293.200 238.853,293.200 239.600 M97.200 245.224 C 97.200 249.137,97.340 251.161,97.600 251.000 C 97.837 250.854,98.000 248.396,98.000 244.976 C 98.000 241.392,97.848 239.200,97.600 239.200 C 97.351 239.200,97.200 241.475,97.200 245.224 M113.200 239.829 C 113.200 240.127,114.275 241.200,114.575 241.200 C 114.702 241.200,114.582 240.840,114.307 240.400 C 113.838 239.649,113.200 239.320,113.200 239.829 M183.251 240.284 C 184.331 241.629,192.158 249.175,192.313 249.020 C 192.499 248.834,183.327 239.600,182.955 239.600 C 182.816 239.600,182.949 239.908,183.251 240.284 M300.562 240.738 C 300.771 241.076,299.714 241.200,296.624 241.200 C 294.075 241.200,292.400 241.359,292.400 241.600 C 292.400 241.842,294.133 242.000,296.800 242.000 C 301.125 242.000,302.344 241.555,300.738 240.562 C 300.452 240.385,300.385 240.452,300.562 240.738 M210.900 243.121 C 209.269 244.877,208.737 246.466,209.600 247.000 C 209.834 247.144,210.000 246.733,210.000 246.010 C 210.000 244.436,212.300 242.000,213.787 242.000 C 214.344 242.000,214.800 241.820,214.800 241.600 C 214.800 240.495,212.507 241.389,210.900 243.121 M146.874 243.082 C 146.364 243.631,146.038 244.171,146.149 244.283 C 146.356 244.489,148.400 242.614,148.400 242.218 C 148.400 241.762,147.766 242.121,146.874 243.082 M129.200 243.376 C 129.200 243.693,129.380 244.064,129.600 244.200 C 129.820 244.336,130.000 244.077,130.000 243.624 C 130.000 243.171,129.820 242.800,129.600 242.800 C 129.380 242.800,129.200 243.059,129.200 243.376 M216.400 243.025 C 216.400 243.325,217.473 244.400,217.771 244.400 C 218.280 244.400,217.951 243.762,217.200 243.293 C 216.760 243.018,216.400 242.898,216.400 243.025 M138.800 243.963 C 138.800 244.382,140.748 245.386,141.024 245.109 C 141.148 244.985,140.699 244.608,140.025 244.272 C 139.351 243.936,138.800 243.797,138.800 243.963 M154.800 245.400 C 154.800 245.730,154.620 246.000,154.400 246.000 C 154.180 246.000,154.000 246.208,154.000 246.462 C 154.000 246.724,154.346 246.611,154.800 246.200 C 155.664 245.418,155.841 244.800,155.200 244.800 C 154.980 244.800,154.800 245.070,154.800 245.400 M233.200 246.024 C 233.200 246.477,233.380 246.736,233.600 246.600 C 233.820 246.464,234.000 246.093,234.000 245.776 C 234.000 245.459,233.820 245.200,233.600 245.200 C 233.380 245.200,233.200 245.571,233.200 246.024 M109.693 248.400 C 110.162 249.151,110.800 249.480,110.800 248.971 C 110.800 248.673,109.725 247.600,109.425 247.600 C 109.298 247.600,109.418 247.960,109.693 248.400 M131.600 247.853 C 131.600 248.210,133.731 250.002,133.925 249.808 C 134.102 249.631,132.164 247.600,131.818 247.600 C 131.698 247.600,131.600 247.714,131.600 247.853 M152.860 248.242 C 152.562 248.578,152.399 248.932,152.495 249.029 C 152.592 249.126,152.998 248.844,153.398 248.402 C 153.797 247.961,153.961 247.607,153.762 247.615 C 153.563 247.624,153.157 247.905,152.860 248.242 M290.000 248.000 C 290.000 248.251,292.522 248.400,296.767 248.400 C 301.818 248.400,303.579 248.527,303.712 248.900 C 303.810 249.175,304.027 249.274,304.193 249.119 C 304.359 248.965,304.217 248.560,303.876 248.219 C 303.140 247.483,290.000 247.276,290.000 248.000 M231.260 249.042 C 230.531 249.866,231.000 250.257,231.781 249.476 C 232.121 249.136,232.400 248.754,232.400 248.629 C 232.400 248.209,231.806 248.424,231.260 249.042 M289.200 249.400 C 289.200 249.730,289.380 250.000,289.600 250.000 C 289.820 250.000,290.000 249.730,290.000 249.400 C 290.000 249.070,289.820 248.800,289.600 248.800 C 289.380 248.800,289.200 249.070,289.200 249.400 M281.200 250.176 C 281.200 250.713,281.380 251.264,281.600 251.400 C 281.833 251.544,282.000 251.137,282.000 250.424 C 282.000 249.751,281.820 249.200,281.600 249.200 C 281.380 249.200,281.200 249.639,281.200 250.176 M274.000 250.800 C 274.000 251.547,274.107 251.653,274.480 251.280 C 274.853 250.907,274.853 250.693,274.480 250.320 C 274.107 249.947,274.000 250.053,274.000 250.800 M91.400 252.000 C 91.716 252.512,95.608 252.512,96.400 252.000 C 96.818 251.730,96.112 251.610,94.076 251.606 C 92.228 251.602,91.244 251.747,91.400 252.000 M112.600 252.000 C 112.736 252.220,114.086 252.400,115.600 252.400 C 117.114 252.400,118.464 252.220,118.600 252.000 C 118.757 251.746,117.663 251.600,115.600 251.600 C 113.537 251.600,112.443 251.746,112.600 252.000 M139.000 252.000 C 139.136 252.220,139.507 252.400,139.824 252.400 C 140.141 252.400,140.400 252.220,140.400 252.000 C 140.400 251.780,140.029 251.600,139.576 251.600 C 139.123 251.600,138.864 251.780,139.000 252.000 M145.200 252.000 C 145.200 252.220,145.560 252.400,146.000 252.400 C 146.440 252.400,146.800 252.220,146.800 252.000 C 146.800 251.780,146.440 251.600,146.000 251.600 C 145.560 251.600,145.200 251.780,145.200 252.000 M170.200 252.000 C 170.336 252.220,171.416 252.400,172.600 252.400 C 173.784 252.400,174.864 252.220,175.000 252.000 C 175.155 251.749,174.263 251.600,172.600 251.600 C 170.937 251.600,170.045 251.749,170.200 252.000 M195.600 252.000 C 195.600 252.220,195.949 252.400,196.376 252.400 C 196.803 252.400,197.264 252.220,197.400 252.000 C 197.540 251.773,197.204 251.600,196.624 251.600 C 196.061 251.600,195.600 251.780,195.600 252.000 M218.200 252.000 C 218.336 252.220,218.887 252.400,219.424 252.400 C 219.961 252.400,220.400 252.220,220.400 252.000 C 220.400 251.780,219.849 251.600,219.176 251.600 C 218.463 251.600,218.056 251.767,218.200 252.000 M224.800 252.000 C 224.800 252.220,225.059 252.400,225.376 252.400 C 225.693 252.400,226.064 252.220,226.200 252.000 C 226.336 251.780,226.077 251.600,225.624 251.600 C 225.171 251.600,224.800 251.780,224.800 252.000 M246.200 252.000 C 246.336 252.220,247.506 252.400,248.800 252.400 C 250.094 252.400,251.264 252.220,251.400 252.000 C 251.556 251.748,250.596 251.600,248.800 251.600 C 247.004 251.600,246.044 251.748,246.200 252.000 M267.800 252.000 C 267.936 252.220,269.196 252.400,270.600 252.400 C 272.004 252.400,273.264 252.220,273.400 252.000 C 273.557 251.747,272.530 251.600,270.600 251.600 C 268.670 251.600,267.643 251.747,267.800 252.000 M282.600 252.000 C 282.736 252.220,283.816 252.400,285.000 252.400 C 286.184 252.400,287.264 252.220,287.400 252.000 C 287.555 251.749,286.663 251.600,285.000 251.600 C 283.337 251.600,282.445 251.749,282.600 252.000 M306.200 252.000 C 306.336 252.220,307.506 252.400,308.800 252.400 C 310.094 252.400,311.264 252.220,311.400 252.000 C 311.556 251.748,310.596 251.600,308.800 251.600 C 307.004 251.600,306.044 251.748,306.200 252.000 " stroke="none" fill="#92ace7" fill-rule="evenodd"></path><path id="path4" d="M90.895 235.300 L 90.991 251.800 91.100 235.900 L 91.209 220.000 94.205 220.000 C 96.601 220.000,97.200 219.880,97.200 219.400 C 97.200 218.917,96.578 218.800,94.000 218.800 L 90.800 218.800 90.895 235.300 M109.600 219.200 C 109.600 219.420,109.234 219.600,108.787 219.600 C 108.285 219.600,106.330 221.254,103.677 223.923 C 101.313 226.300,99.069 228.365,98.689 228.510 C 98.310 228.656,98.000 229.051,98.000 229.387 C 98.000 229.724,97.820 230.000,97.600 230.000 C 97.380 230.000,97.200 230.292,97.200 230.649 C 97.200 231.059,98.197 230.351,99.900 228.730 C 101.385 227.318,104.053 224.775,105.829 223.081 L 109.057 220.000 112.129 220.000 C 116.148 220.000,116.116 220.147,111.000 225.181 C 106.603 229.508,106.460 229.736,107.352 231.011 C 107.655 231.445,108.268 232.450,108.714 233.245 C 109.160 234.040,109.767 235.120,110.062 235.645 C 110.358 236.170,110.690 236.690,110.800 236.800 C 111.196 237.196,112.454 239.415,112.671 240.100 C 112.793 240.485,113.052 240.800,113.247 240.800 C 113.441 240.800,113.600 240.983,113.600 241.207 C 113.600 241.431,114.320 242.800,115.200 244.248 C 116.080 245.697,116.804 246.998,116.809 247.141 C 116.814 247.283,117.170 247.850,117.600 248.400 C 118.030 248.950,118.386 249.895,118.391 250.500 C 118.397 251.207,118.614 251.600,119.000 251.600 C 119.412 251.600,119.598 251.192,119.594 250.300 C 119.589 249.314,119.494 249.145,119.200 249.600 C 118.886 250.085,118.811 250.028,118.806 249.300 C 118.803 248.805,118.620 248.400,118.400 248.400 C 118.180 248.400,118.000 248.040,118.000 247.600 C 118.000 247.160,117.820 246.800,117.600 246.800 C 117.380 246.800,117.200 246.480,117.200 246.088 C 117.200 245.697,116.840 245.117,116.400 244.800 C 115.960 244.483,115.600 243.903,115.600 243.512 C 115.600 243.120,115.420 242.800,115.200 242.800 C 114.980 242.800,114.800 242.480,114.800 242.088 C 114.800 241.697,114.440 241.117,114.000 240.800 C 113.560 240.483,113.200 239.903,113.200 239.512 C 113.200 239.120,113.020 238.800,112.800 238.800 C 112.580 238.800,112.400 238.506,112.400 238.147 C 112.400 237.788,112.012 237.158,111.539 236.747 C 111.030 236.305,110.891 236.000,111.200 236.000 C 111.509 236.000,111.370 235.695,110.861 235.253 C 110.388 234.842,110.000 234.212,110.000 233.853 C 110.000 233.494,109.820 233.200,109.600 233.200 C 109.380 233.200,109.200 232.880,109.200 232.488 C 109.200 232.097,108.840 231.517,108.400 231.200 C 107.101 230.264,107.388 229.786,112.000 225.200 C 116.557 220.669,116.783 220.326,115.829 219.371 C 115.159 218.702,109.600 218.549,109.600 219.200 M129.292 228.900 L 129.385 239.000 129.500 229.500 L 129.614 220.000 132.607 220.000 C 135.001 220.000,135.600 219.880,135.600 219.400 C 135.600 218.917,134.978 218.800,132.400 218.800 L 129.200 218.800 129.292 228.900 M150.000 229.024 C 150.000 235.737,149.863 239.162,149.600 239.000 C 149.372 238.859,149.200 239.207,149.200 239.810 C 149.200 240.477,149.384 240.805,149.700 240.700 C 150.079 240.574,150.226 238.048,150.307 230.267 L 150.414 220.000 153.407 220.000 C 155.801 220.000,156.400 219.880,156.400 219.400 C 156.400 218.917,155.778 218.800,153.200 218.800 L 150.000 218.800 150.000 229.024 M171.200 219.084 C 171.200 219.715,174.641 222.825,174.988 222.509 C 175.175 222.339,175.208 222.411,175.060 222.668 C 174.899 222.949,176.428 224.630,178.882 226.868 C 181.131 228.921,184.521 232.087,186.415 233.904 C 188.310 235.721,189.981 237.116,190.130 237.004 C 190.278 236.892,190.310 236.920,190.199 237.068 C 189.965 237.380,191.164 238.800,191.662 238.800 C 191.848 238.800,192.000 234.570,192.000 229.400 L 192.000 220.000 194.795 220.000 L 197.590 220.000 197.700 235.300 L 197.810 250.600 197.905 234.700 L 198.000 218.800 194.800 218.800 L 191.600 218.800 191.600 228.400 C 191.600 234.533,191.456 238.000,191.200 238.000 C 190.980 238.000,190.800 237.640,190.800 237.200 C 190.800 236.751,190.533 236.400,190.192 236.400 C 189.858 236.400,186.351 233.160,182.400 229.200 C 178.449 225.240,175.018 222.000,174.777 222.000 C 174.535 222.000,173.631 221.265,172.769 220.367 C 171.906 219.469,171.200 218.892,171.200 219.084 M217.400 219.200 C 217.540 219.427,217.204 219.600,216.624 219.600 C 216.061 219.600,215.600 219.780,215.600 220.000 C 215.600 220.220,215.322 220.400,214.982 220.400 C 214.198 220.400,212.400 222.175,212.400 222.948 C 212.400 223.270,212.175 223.614,211.900 223.712 C 211.625 223.810,211.536 224.036,211.702 224.214 C 211.869 224.393,212.645 223.790,213.428 222.876 C 214.793 221.281,216.534 220.198,218.167 219.927 C 219.389 219.725,219.424 218.800,218.210 218.800 C 217.607 218.800,217.259 218.972,217.400 219.200 M224.800 219.157 C 224.800 219.512,225.739 220.000,226.420 220.000 C 226.615 220.000,226.671 219.730,226.545 219.400 C 226.300 218.762,224.800 218.553,224.800 219.157 M245.700 219.398 C 245.318 219.832,245.200 223.699,245.200 235.783 C 245.200 248.170,245.308 251.600,245.700 251.600 C 246.093 251.600,246.176 248.234,246.087 235.800 L 245.973 220.000 248.587 220.000 L 251.200 220.000 251.200 225.376 C 251.200 228.885,251.354 230.848,251.644 231.027 C 251.902 231.186,254.467 228.927,257.749 225.651 L 263.410 220.000 266.905 220.000 C 270.369 220.000,270.955 220.242,269.804 221.196 C 269.477 221.468,269.310 221.855,269.434 222.055 C 269.558 222.256,269.421 222.370,269.130 222.310 C 268.838 222.249,268.649 222.438,268.710 222.730 C 268.770 223.021,268.667 223.165,268.481 223.050 C 268.295 222.935,266.636 224.354,264.795 226.205 C 261.325 229.693,261.110 230.316,262.799 232.000 C 262.910 232.110,263.197 232.560,263.438 233.000 C 264.479 234.905,265.013 235.813,265.201 236.000 C 265.311 236.110,265.665 236.740,265.988 237.400 C 266.311 238.060,267.076 239.352,267.688 240.272 C 268.299 241.192,268.800 242.064,268.800 242.210 C 268.800 242.357,269.139 242.954,269.553 243.538 C 270.668 245.112,272.402 248.100,272.664 248.900 C 272.790 249.285,273.187 249.586,273.547 249.568 C 273.961 249.548,274.017 249.463,273.700 249.335 C 273.425 249.224,273.200 248.788,273.200 248.367 C 273.200 247.945,273.020 247.600,272.800 247.600 C 272.580 247.600,272.400 247.240,272.400 246.800 C 272.400 246.360,272.220 246.000,272.000 246.000 C 271.780 246.000,271.600 245.680,271.600 245.288 C 271.600 244.897,271.240 244.317,270.800 244.000 C 270.360 243.683,270.000 243.103,270.000 242.712 C 270.000 242.320,269.820 242.000,269.600 242.000 C 269.380 242.000,269.200 241.764,269.200 241.475 C 269.200 241.187,268.840 240.564,268.400 240.092 C 267.960 239.620,267.600 238.956,267.600 238.617 C 267.600 238.278,267.420 238.000,267.200 238.000 C 266.980 238.000,266.800 237.680,266.800 237.288 C 266.800 236.897,266.440 236.317,266.000 236.000 C 265.560 235.683,265.200 235.103,265.200 234.712 C 265.200 234.320,265.020 234.000,264.800 234.000 C 264.580 234.000,264.400 233.680,264.400 233.288 C 264.400 232.897,264.040 232.317,263.600 232.000 C 263.160 231.683,262.800 231.118,262.800 230.745 C 262.800 230.372,262.584 229.995,262.320 229.907 C 261.792 229.731,267.723 223.600,268.422 223.600 C 269.065 223.600,270.000 222.550,270.000 221.829 C 270.000 221.483,270.180 221.200,270.400 221.200 C 270.620 221.200,270.800 220.660,270.800 220.000 L 270.800 218.800 267.400 218.800 C 265.400 218.800,264.000 218.965,264.000 219.200 C 264.000 219.420,263.815 219.600,263.588 219.600 C 263.362 219.600,261.027 221.760,258.400 224.400 C 252.352 230.478,252.400 230.477,252.400 224.571 C 252.400 221.093,252.258 219.801,251.829 219.371 C 251.051 218.594,246.390 218.614,245.700 219.398 M295.300 219.423 C 295.025 219.722,294.800 220.244,294.800 220.583 C 294.800 220.922,294.620 221.200,294.400 221.200 C 294.180 221.200,294.000 221.560,294.000 222.000 C 294.000 222.440,293.820 222.800,293.600 222.800 C 293.380 222.800,293.200 223.070,293.200 223.400 C 293.200 224.229,293.975 224.155,294.250 223.300 C 294.373 222.915,294.846 221.834,295.301 220.898 C 296.161 219.127,296.161 218.489,295.300 219.423 M227.600 220.013 C 227.600 220.239,227.915 220.539,228.300 220.678 C 231.315 221.766,231.994 223.755,230.000 225.660 C 229.340 226.291,228.800 226.991,228.800 227.217 C 228.800 227.442,229.430 226.997,230.200 226.227 C 232.314 224.113,231.561 220.400,229.018 220.400 C 228.678 220.400,228.400 220.220,228.400 220.000 C 228.400 219.780,228.220 219.600,228.000 219.600 C 227.780 219.600,227.600 219.786,227.600 220.013 M298.400 220.777 C 298.400 221.016,298.565 221.523,298.766 221.905 C 298.968 222.287,299.426 223.275,299.785 224.100 C 300.446 225.619,301.200 226.099,301.200 225.000 C 301.200 224.670,301.020 224.400,300.800 224.400 C 300.580 224.400,300.400 224.040,300.400 223.600 C 300.400 223.160,300.220 222.800,300.000 222.800 C 299.780 222.800,299.600 222.517,299.600 222.171 C 299.600 221.826,299.330 221.273,299.000 220.943 C 298.670 220.613,298.400 220.538,298.400 220.777 M292.800 224.800 C 292.483 224.996,292.356 225.289,292.518 225.452 C 292.681 225.614,293.023 225.537,293.280 225.280 C 293.884 224.676,293.547 224.338,292.800 224.800 M211.300 225.398 C 210.708 226.071,210.621 230.400,211.200 230.400 C 211.420 230.400,211.600 230.850,211.600 231.400 C 211.600 231.950,211.780 232.400,212.000 232.400 C 212.220 232.400,212.400 232.683,212.400 233.029 C 212.400 233.374,212.657 233.914,212.971 234.229 C 213.286 234.543,213.826 234.800,214.171 234.800 C 214.517 234.800,214.800 234.980,214.800 235.200 C 214.800 235.420,215.070 235.600,215.400 235.600 C 215.730 235.600,216.000 235.780,216.000 236.000 C 216.000 236.220,216.180 236.400,216.400 236.400 C 216.620 236.400,216.800 236.130,216.800 235.800 C 216.800 235.470,216.494 235.200,216.119 235.200 C 215.745 235.200,214.665 234.381,213.719 233.380 C 211.902 231.456,211.724 230.785,211.951 226.700 C 212.067 224.625,212.036 224.563,211.300 225.398 M218.633 225.700 C 218.224 226.195,217.640 226.888,217.337 227.240 C 216.332 228.405,219.397 232.000,221.394 232.000 C 221.701 232.000,222.064 232.180,222.200 232.400 C 222.336 232.620,222.627 232.800,222.847 232.800 C 223.067 232.800,223.145 232.635,223.021 232.434 C 222.897 232.233,223.021 231.977,223.298 231.866 C 223.574 231.754,223.215 231.649,222.500 231.632 C 221.785 231.614,221.200 231.420,221.200 231.200 C 221.200 230.980,220.922 230.800,220.582 230.800 C 218.293 230.800,217.424 227.659,219.242 225.960 C 219.945 225.304,220.244 224.800,219.931 224.800 C 219.627 224.800,219.043 225.205,218.633 225.700 M223.855 225.400 C 223.982 225.730,224.477 226.000,224.954 226.000 C 225.432 226.000,226.083 226.360,226.400 226.800 C 227.009 227.645,228.000 227.885,228.000 227.187 C 228.000 226.961,227.685 226.661,227.300 226.522 C 226.915 226.383,226.122 225.939,225.538 225.535 C 224.252 224.645,223.544 224.588,223.855 225.400 M292.100 226.623 C 291.825 226.922,291.600 227.444,291.600 227.783 C 291.600 228.122,291.420 228.400,291.200 228.400 C 290.980 228.400,290.800 228.760,290.800 229.200 C 290.800 229.640,290.620 230.000,290.400 230.000 C 290.180 230.000,290.000 230.270,290.000 230.600 C 290.000 231.429,290.775 231.355,291.050 230.500 C 291.173 230.115,291.646 229.034,292.101 228.098 C 292.961 226.327,292.961 225.689,292.100 226.623 M300.914 226.542 C 301.132 227.195,302.000 227.322,302.000 226.700 C 302.000 226.388,301.725 226.133,301.389 226.133 C 301.053 226.133,300.839 226.317,300.914 226.542 M301.600 228.148 C 301.600 228.806,302.318 229.415,302.674 229.059 C 302.796 228.938,302.604 228.547,302.248 228.190 C 301.688 227.631,301.600 227.625,301.600 228.148 M302.400 229.818 C 302.400 229.924,302.567 230.323,302.771 230.705 C 302.975 231.087,303.239 231.715,303.358 232.100 C 303.623 232.955,304.400 233.030,304.400 232.200 C 304.400 231.870,304.220 231.600,304.000 231.600 C 303.780 231.600,303.600 231.259,303.600 230.843 C 303.600 230.426,303.330 229.982,303.000 229.855 C 302.670 229.729,302.400 229.712,302.400 229.818 M296.464 230.496 C 296.209 230.751,296.000 231.273,296.000 231.656 C 296.000 232.039,295.820 232.464,295.600 232.600 C 294.970 232.990,295.134 233.600,295.800 233.345 C 296.130 233.218,296.400 232.684,296.400 232.157 C 296.400 231.573,296.634 231.200,297.000 231.200 C 297.330 231.200,297.600 231.031,297.600 230.824 C 297.600 230.191,296.955 230.005,296.464 230.496 M289.200 232.300 C 289.200 232.612,289.414 232.795,289.675 232.708 C 290.400 232.467,290.503 231.733,289.811 231.733 C 289.475 231.733,289.200 231.988,289.200 232.300 M175.458 232.276 C 175.316 232.417,175.242 236.868,175.292 242.167 L 175.385 251.800 175.500 242.500 C 175.563 237.385,175.709 233.200,175.824 233.200 C 175.940 233.200,177.459 234.640,179.200 236.400 C 180.941 238.160,182.558 239.600,182.792 239.600 C 183.027 239.600,185.910 242.300,189.200 245.600 C 194.326 250.742,195.357 251.600,196.414 251.600 C 197.134 251.600,197.544 251.766,197.400 252.000 C 197.264 252.220,197.343 252.400,197.576 252.400 C 197.809 252.400,198.000 252.130,198.000 251.800 C 198.000 251.454,197.638 251.200,197.145 251.200 C 196.132 251.200,192.397 247.966,184.400 240.161 C 177.509 233.436,175.802 231.931,175.458 232.276 M297.200 232.624 C 297.200 232.967,297.380 233.136,297.600 233.000 C 297.825 232.861,298.000 233.182,298.000 233.734 C 298.000 234.273,298.270 234.818,298.600 234.945 C 299.297 235.212,299.340 235.051,298.829 234.095 C 298.625 233.713,298.361 233.085,298.242 232.700 C 297.973 231.832,297.200 231.775,297.200 232.624 M224.100 232.900 C 224.191 233.175,224.566 233.458,224.932 233.529 C 225.396 233.619,225.524 233.468,225.356 233.029 C 225.072 232.290,223.855 232.165,224.100 232.900 M226.400 233.553 C 226.400 233.747,227.345 234.379,228.500 234.957 C 231.552 236.483,232.115 237.084,232.951 239.700 C 233.225 240.555,234.000 240.629,234.000 239.800 C 234.000 239.470,233.820 239.200,233.600 239.200 C 233.380 239.200,233.200 238.834,233.200 238.387 C 233.200 237.437,230.710 234.800,229.813 234.800 C 229.476 234.800,229.200 234.620,229.200 234.400 C 229.200 234.180,228.739 234.000,228.176 234.000 C 227.596 234.000,227.260 233.827,227.400 233.600 C 227.536 233.380,227.367 233.200,227.024 233.200 C 226.681 233.200,226.400 233.359,226.400 233.553 M304.092 233.675 C 304.339 234.417,305.200 234.540,305.200 233.833 C 305.200 233.485,304.915 233.200,304.567 233.200 C 304.218 233.200,304.005 233.414,304.092 233.675 M99.398 236.402 C 97.599 238.215,96.861 239.200,97.302 239.200 C 97.676 239.200,98.973 238.210,100.183 237.000 C 102.634 234.549,102.800 234.460,102.800 235.600 C 102.800 236.040,102.980 236.400,103.200 236.400 C 103.420 236.400,103.600 236.720,103.600 237.112 C 103.600 237.503,103.960 238.083,104.400 238.400 C 104.840 238.717,105.200 239.297,105.200 239.688 C 105.200 240.080,105.380 240.400,105.600 240.400 C 105.820 240.400,106.000 240.694,106.000 241.053 C 106.000 241.412,106.388 242.042,106.861 242.453 C 107.370 242.895,107.509 243.200,107.200 243.200 C 106.891 243.200,107.030 243.505,107.539 243.947 C 108.012 244.358,108.400 244.988,108.400 245.347 C 108.400 245.706,108.580 246.000,108.800 246.000 C 109.020 246.000,109.200 246.320,109.200 246.712 C 109.200 247.103,109.560 247.683,110.000 248.000 C 110.440 248.317,110.800 248.897,110.800 249.288 C 110.800 249.680,110.980 250.000,111.200 250.000 C 111.420 250.000,111.600 250.360,111.600 250.800 C 111.600 251.244,111.867 251.600,112.200 251.600 C 112.994 251.600,112.945 251.208,112.000 250.000 C 111.570 249.450,111.214 248.775,111.209 248.500 C 111.204 248.225,111.062 248.000,110.894 248.000 C 110.726 248.000,110.282 247.325,109.906 246.500 C 109.220 244.991,107.972 242.772,107.600 242.400 C 107.490 242.290,107.158 241.770,106.862 241.245 C 106.567 240.720,105.982 239.685,105.562 238.945 C 105.143 238.205,104.424 236.925,103.965 236.100 C 102.427 233.338,102.439 233.338,99.398 236.402 M254.100 236.681 L 251.200 239.595 251.200 245.597 C 251.200 250.666,251.293 251.600,251.800 251.600 C 252.308 251.600,252.400 250.643,252.400 245.391 L 252.400 239.183 254.591 236.991 C 256.620 234.962,257.595 234.238,257.000 235.200 C 256.864 235.420,257.033 235.600,257.376 235.600 C 257.733 235.600,258.000 235.942,258.000 236.400 C 258.000 236.840,258.180 237.200,258.400 237.200 C 258.620 237.200,258.800 237.520,258.800 237.912 C 258.800 238.303,259.160 238.883,259.600 239.200 C 260.040 239.517,260.400 240.097,260.400 240.488 C 260.400 240.880,260.580 241.200,260.800 241.200 C 261.020 241.200,261.200 241.520,261.200 241.912 C 261.200 242.303,261.560 242.883,262.000 243.200 C 262.440 243.517,262.800 244.097,262.800 244.488 C 262.800 244.880,262.980 245.200,263.200 245.200 C 263.420 245.200,263.600 245.560,263.600 246.000 C 263.600 246.440,263.780 246.800,264.000 246.800 C 264.220 246.800,264.400 247.070,264.400 247.400 C 264.400 247.730,264.580 248.000,264.800 248.000 C 265.020 248.000,265.200 248.270,265.200 248.600 C 265.200 248.930,265.380 249.200,265.600 249.200 C 265.820 249.200,266.000 249.483,266.000 249.829 C 266.000 250.174,266.270 250.727,266.600 251.057 C 267.520 251.977,267.404 250.611,266.447 249.262 C 266.033 248.678,265.330 247.550,264.884 246.755 C 263.182 243.714,262.994 243.394,262.800 243.200 C 262.690 243.090,262.226 242.280,261.770 241.400 C 260.684 239.308,259.850 237.849,259.596 237.600 C 259.484 237.490,259.034 236.712,258.596 235.871 C 257.378 233.531,257.205 233.562,254.100 236.681 M288.400 234.300 C 288.400 234.612,288.614 234.795,288.875 234.708 C 289.600 234.467,289.703 233.733,289.011 233.733 C 288.675 233.733,288.400 233.988,288.400 234.300 M294.400 234.987 C 294.400 235.345,294.635 235.485,295.000 235.345 C 295.330 235.218,295.600 234.954,295.600 234.757 C 295.600 234.561,295.330 234.400,295.000 234.400 C 294.670 234.400,294.400 234.664,294.400 234.987 M304.800 235.175 C 304.800 235.367,305.143 236.216,305.563 237.062 C 305.982 237.908,306.620 239.275,306.981 240.100 C 307.646 241.620,308.400 242.098,308.400 241.000 C 308.400 240.670,308.220 240.400,308.000 240.400 C 307.780 240.400,307.600 240.040,307.600 239.600 C 307.600 239.160,307.420 238.800,307.200 238.800 C 306.980 238.800,306.800 238.440,306.800 238.000 C 306.800 237.560,306.620 237.200,306.400 237.200 C 306.180 237.200,306.000 236.769,306.000 236.243 C 306.000 235.716,305.730 235.182,305.400 235.055 C 305.070 234.929,304.800 234.982,304.800 235.175 M288.100 235.488 C 287.825 235.586,287.600 236.012,287.600 236.433 C 287.600 236.855,287.420 237.200,287.200 237.200 C 286.980 237.200,286.800 237.661,286.800 238.224 C 286.800 238.804,286.627 239.140,286.400 239.000 C 286.180 238.864,286.000 239.033,286.000 239.376 C 286.000 240.496,286.748 240.033,287.415 238.500 C 287.774 237.675,288.245 236.667,288.461 236.261 C 288.909 235.422,288.819 235.231,288.100 235.488 M217.790 236.648 C 218.147 237.004,218.538 237.196,218.659 237.074 C 219.015 236.718,218.406 236.000,217.748 236.000 C 217.225 236.000,217.231 236.088,217.790 236.648 M293.751 236.700 C 293.628 237.085,293.334 237.805,293.096 238.299 C 292.859 238.794,292.786 239.319,292.933 239.466 C 293.080 239.613,293.200 239.513,293.200 239.243 C 293.200 238.973,293.380 238.864,293.600 239.000 C 293.827 239.140,294.000 238.804,294.000 238.224 C 294.000 237.661,294.180 237.200,294.400 237.200 C 294.620 237.200,294.800 236.930,294.800 236.600 C 294.800 235.771,294.025 235.845,293.751 236.700 M298.800 236.357 C 298.800 236.554,299.070 236.818,299.400 236.945 C 299.765 237.085,300.000 236.945,300.000 236.587 C 300.000 236.264,299.730 236.000,299.400 236.000 C 299.070 236.000,298.800 236.161,298.800 236.357 M219.743 237.400 C 220.073 237.730,220.446 238.000,220.571 238.000 C 220.697 238.000,220.800 237.730,220.800 237.400 C 220.800 237.060,220.441 236.800,219.971 236.800 C 219.235 236.800,219.210 236.867,219.743 237.400 M221.844 238.171 C 222.128 238.910,223.345 239.035,223.100 238.300 C 223.009 238.025,222.634 237.742,222.268 237.671 C 221.804 237.581,221.676 237.732,221.844 238.171 M299.600 238.167 C 299.600 238.478,299.778 238.793,299.997 238.867 C 300.215 238.940,300.432 239.475,300.480 240.055 C 300.536 240.731,300.753 241.040,301.084 240.913 C 301.699 240.676,301.709 240.594,301.229 239.695 C 301.025 239.313,300.761 238.685,300.642 238.300 C 300.383 237.463,299.600 237.362,299.600 238.167 M135.254 239.288 C 135.172 240.927,137.652 245.062,138.429 244.582 C 138.606 244.473,138.928 244.700,139.145 245.088 C 139.362 245.476,139.673 245.660,139.835 245.498 C 139.998 245.336,139.291 244.410,138.265 243.441 C 137.197 242.432,136.400 241.321,136.400 240.840 C 136.400 240.378,136.233 240.000,136.028 240.000 C 135.823 240.000,135.578 239.595,135.482 239.100 C 135.332 238.320,135.302 238.345,135.254 239.288 M223.862 238.983 C 223.713 239.372,223.849 239.600,224.231 239.600 C 225.021 239.600,226.800 241.388,226.800 242.182 C 226.800 242.850,227.417 243.020,227.770 242.449 C 228.030 242.028,226.273 239.313,225.926 239.600 C 225.793 239.710,225.327 239.477,224.891 239.083 C 224.197 238.454,224.070 238.442,223.862 238.983 M292.267 240.267 C 292.120 240.413,292.000 240.876,292.000 241.295 C 292.000 241.972,292.067 241.990,292.600 241.457 C 292.930 241.127,293.200 240.664,293.200 240.429 C 293.200 239.949,292.675 239.858,292.267 240.267 M285.700 240.688 C 285.425 240.786,285.200 241.302,285.200 241.833 C 285.200 242.365,285.020 242.800,284.800 242.800 C 284.580 242.800,284.400 243.160,284.400 243.600 C 284.400 244.040,284.220 244.400,284.000 244.400 C 283.780 244.400,283.600 244.749,283.600 245.176 C 283.600 245.603,283.420 246.064,283.200 246.200 C 282.692 246.514,282.679 247.200,283.181 247.200 C 283.391 247.200,283.860 246.525,284.223 245.700 C 284.586 244.875,285.253 243.434,285.706 242.498 C 286.556 240.737,286.555 240.383,285.700 240.688 M155.443 241.433 C 154.951 242.715,155.130 243.328,155.800 242.657 C 156.456 242.001,156.613 240.800,156.043 240.800 C 155.846 240.800,155.576 241.085,155.443 241.433 M129.200 242.124 C 129.200 242.449,129.483 242.823,129.829 242.956 C 130.268 243.124,130.419 242.996,130.329 242.532 C 130.165 241.685,129.200 241.337,129.200 242.124 M148.400 242.018 C 148.400 242.629,146.530 244.400,145.885 244.400 C 145.582 244.400,145.333 244.670,145.333 245.000 C 145.333 245.917,145.703 245.745,147.731 243.884 C 149.712 242.065,149.970 241.600,149.000 241.600 C 148.670 241.600,148.400 241.788,148.400 242.018 M211.300 243.416 C 209.331 245.478,210.099 249.200,212.494 249.200 C 212.785 249.200,213.283 249.560,213.600 250.000 C 213.917 250.440,214.407 250.800,214.688 250.800 C 215.350 250.800,215.361 249.603,214.700 249.590 C 213.704 249.570,210.400 246.801,210.400 245.985 C 210.400 245.024,212.680 242.400,213.516 242.400 C 213.839 242.400,215.158 243.120,216.447 244.000 C 219.048 245.776,219.277 245.867,218.945 245.000 C 218.818 244.670,218.446 244.400,218.118 244.400 C 217.789 244.400,217.017 243.860,216.400 243.200 C 214.825 241.514,213.045 241.589,211.300 243.416 M308.000 242.667 C 308.000 242.960,308.270 243.200,308.600 243.200 C 308.930 243.200,309.200 242.960,309.200 242.667 C 309.200 242.373,308.930 242.133,308.600 242.133 C 308.270 242.133,308.000 242.373,308.000 242.667 M225.600 244.400 C 225.129 245.054,224.565 245.200,222.512 245.200 C 220.119 245.200,219.268 245.634,220.633 246.157 C 222.510 246.877,226.800 245.499,226.800 244.176 C 226.800 243.363,226.277 243.461,225.600 244.400 M308.800 243.977 C 308.800 244.216,308.965 244.723,309.166 245.105 C 309.368 245.487,309.826 246.475,310.185 247.300 C 310.544 248.125,311.009 248.800,311.219 248.800 C 311.721 248.800,311.708 248.114,311.200 247.800 C 310.980 247.664,310.800 247.203,310.800 246.776 C 310.800 246.349,310.620 246.000,310.400 246.000 C 310.180 246.000,310.000 245.717,310.000 245.371 C 310.000 245.026,309.730 244.473,309.400 244.143 C 309.070 243.813,308.800 243.738,308.800 243.977 M130.000 244.600 C 130.000 244.930,130.180 245.200,130.400 245.200 C 130.620 245.200,130.800 245.475,130.800 245.811 C 130.800 246.604,134.196 250.000,134.989 250.000 C 135.325 250.000,135.600 250.180,135.600 250.400 C 135.600 250.620,135.960 250.800,136.400 250.800 C 136.840 250.800,137.200 250.980,137.200 251.200 C 137.200 251.420,137.485 251.600,137.833 251.600 C 138.704 251.600,138.314 250.635,137.369 250.452 C 135.426 250.075,132.482 247.536,131.395 245.300 C 130.734 243.941,130.000 243.572,130.000 244.600 M154.400 244.800 C 154.400 245.240,154.259 245.600,154.086 245.600 C 153.914 245.600,153.455 246.137,153.067 246.794 C 152.312 248.073,149.489 250.208,148.231 250.452 C 147.286 250.635,146.896 251.600,147.767 251.600 C 148.115 251.600,148.400 251.420,148.400 251.200 C 148.400 250.980,148.760 250.800,149.200 250.800 C 149.640 250.800,150.000 250.620,150.000 250.400 C 150.000 250.180,150.276 250.000,150.613 250.000 C 151.409 250.000,154.000 247.409,154.000 246.613 C 154.000 246.276,154.180 246.000,154.400 246.000 C 154.620 246.000,154.800 245.730,154.800 245.400 C 154.800 245.070,154.980 244.800,155.200 244.800 C 155.420 244.800,155.600 244.620,155.600 244.400 C 155.600 244.180,155.330 244.000,155.000 244.000 C 154.667 244.000,154.400 244.356,154.400 244.800 M233.067 244.267 C 232.920 244.413,232.800 244.876,232.800 245.295 C 232.800 245.972,232.867 245.990,233.400 245.457 C 233.730 245.127,234.000 244.664,234.000 244.429 C 234.000 243.949,233.475 243.858,233.067 244.267 M141.200 245.573 C 141.200 246.113,142.667 246.496,143.600 246.200 C 144.948 245.772,144.490 245.200,142.800 245.200 C 141.920 245.200,141.200 245.368,141.200 245.573 M230.700 248.458 C 229.655 249.545,228.800 250.516,228.800 250.617 C 228.800 251.217,229.851 250.570,231.411 249.011 C 233.053 247.368,233.650 246.338,232.900 246.441 C 232.735 246.464,231.745 247.371,230.700 248.458 M289.500 247.632 C 288.637 248.135,288.550 249.271,289.400 248.945 C 289.730 248.818,290.000 248.464,290.000 248.157 C 290.000 247.289,303.004 247.347,303.876 248.219 C 304.647 248.990,305.099 248.642,304.408 247.810 C 303.803 247.080,290.715 246.924,289.500 247.632 M282.133 248.238 C 282.133 248.547,282.373 248.800,282.667 248.800 C 282.960 248.800,283.200 248.639,283.200 248.443 C 283.200 248.246,282.960 247.993,282.667 247.881 C 282.373 247.768,282.133 247.929,282.133 248.238 M311.200 250.413 C 311.200 251.201,311.401 251.600,311.800 251.600 C 312.166 251.600,312.400 251.227,312.400 250.643 C 312.400 250.116,312.130 249.582,311.800 249.455 C 311.350 249.283,311.200 249.521,311.200 250.413 M288.267 249.867 C 288.120 250.013,288.000 250.476,288.000 250.895 C 288.000 251.572,288.067 251.590,288.600 251.057 C 288.930 250.727,289.200 250.264,289.200 250.029 C 289.200 249.549,288.675 249.458,288.267 249.867 M304.400 250.000 C 304.400 250.220,304.580 250.400,304.800 250.400 C 305.020 250.400,305.200 250.681,305.200 251.024 C 305.200 251.367,305.363 251.546,305.562 251.423 C 306.097 251.093,305.598 249.600,304.953 249.600 C 304.649 249.600,304.400 249.780,304.400 250.000 M216.302 250.641 C 216.579 250.766,216.703 251.033,216.579 251.234 C 216.455 251.435,216.648 251.600,217.010 251.600 C 217.913 251.600,217.517 250.622,216.567 250.507 C 216.145 250.456,216.026 250.516,216.302 250.641 M226.619 251.427 L 225.947 252.453 226.905 251.825 C 227.432 251.480,227.954 251.288,228.065 251.399 C 228.176 251.509,228.267 251.330,228.267 251.000 C 228.267 250.061,227.360 250.296,226.619 251.427 M139.700 251.476 C 140.085 251.576,140.400 251.825,140.400 252.029 C 140.400 252.233,141.480 252.400,142.800 252.400 C 144.120 252.400,145.200 252.233,145.200 252.029 C 145.200 251.825,145.515 251.576,145.900 251.476 C 146.285 251.375,144.890 251.293,142.800 251.293 C 140.710 251.293,139.315 251.375,139.700 251.476 M219.500 251.482 C 219.995 251.578,220.400 251.823,220.400 252.028 C 220.400 252.658,224.395 252.463,225.057 251.800 C 225.590 251.267,225.265 251.206,222.129 251.254 C 220.188 251.284,219.005 251.387,219.500 251.482 " stroke="none" fill="#757575" fill-rule="evenodd"></path></g></svg>